<mxfile host="app.diagrams.net" modified="2024-04-11T18:20:24.416Z" agent="Mozilla/5.0 (Windows NT 10.0; Win64; x64) AppleWebKit/537.36 (KHTML, like Gecko) Chrome/122.0.0.0 Safari/537.36" etag="DfdQCV1ZuYRudqzJ8Rqg" version="24.2.3" type="device">
  <diagram name="Page-1" id="GpMGKudZMkiiEpbJN2XM">
    <mxGraphModel dx="2445" dy="966" grid="0" gridSize="10" guides="1" tooltips="1" connect="1" arrows="1" fold="1" page="0" pageScale="1" pageWidth="850" pageHeight="1100" math="0" shadow="0">
      <root>
        <mxCell id="0" />
        <mxCell id="1" parent="0" />
        <mxCell id="WlaR65cunMCcRaufkru7-1" value="member" style="shape=table;startSize=30;container=1;collapsible=1;childLayout=tableLayout;fixedRows=1;rowLines=0;fontStyle=1;align=center;resizeLast=1;html=1;whiteSpace=wrap;" parent="1" vertex="1">
          <mxGeometry x="-563" y="272" width="180" height="186" as="geometry" />
        </mxCell>
        <mxCell id="WlaR65cunMCcRaufkru7-2" value="" style="shape=tableRow;horizontal=0;startSize=0;swimlaneHead=0;swimlaneBody=0;fillColor=none;collapsible=0;dropTarget=0;points=[[0,0.5],[1,0.5]];portConstraint=eastwest;top=0;left=0;right=0;bottom=0;html=1;" parent="WlaR65cunMCcRaufkru7-1" vertex="1">
          <mxGeometry y="30" width="180" height="30" as="geometry" />
        </mxCell>
        <mxCell id="WlaR65cunMCcRaufkru7-3" value="PK" style="shape=partialRectangle;connectable=0;fillColor=none;top=0;left=0;bottom=0;right=0;fontStyle=1;overflow=hidden;html=1;whiteSpace=wrap;" parent="WlaR65cunMCcRaufkru7-2" vertex="1">
          <mxGeometry width="36.549957275390625" height="30" as="geometry">
            <mxRectangle width="36.549957275390625" height="30" as="alternateBounds" />
          </mxGeometry>
        </mxCell>
        <mxCell id="WlaR65cunMCcRaufkru7-4" value="member_id" style="shape=partialRectangle;connectable=0;fillColor=none;top=0;left=0;bottom=0;right=0;align=left;spacingLeft=6;fontStyle=5;overflow=hidden;html=1;whiteSpace=wrap;" parent="WlaR65cunMCcRaufkru7-2" vertex="1">
          <mxGeometry x="36.549957275390625" width="143.45004272460938" height="30" as="geometry">
            <mxRectangle width="143.45004272460938" height="30" as="alternateBounds" />
          </mxGeometry>
        </mxCell>
        <mxCell id="WlaR65cunMCcRaufkru7-8" value="" style="shape=tableRow;horizontal=0;startSize=0;swimlaneHead=0;swimlaneBody=0;fillColor=none;collapsible=0;dropTarget=0;points=[[0,0.5],[1,0.5]];portConstraint=eastwest;top=0;left=0;right=0;bottom=0;html=1;" parent="WlaR65cunMCcRaufkru7-1" vertex="1">
          <mxGeometry y="60" width="180" height="30" as="geometry" />
        </mxCell>
        <mxCell id="WlaR65cunMCcRaufkru7-9" value="" style="shape=partialRectangle;connectable=0;fillColor=none;top=0;left=0;bottom=0;right=0;editable=1;overflow=hidden;html=1;whiteSpace=wrap;" parent="WlaR65cunMCcRaufkru7-8" vertex="1">
          <mxGeometry width="36.549957275390625" height="30" as="geometry">
            <mxRectangle width="36.549957275390625" height="30" as="alternateBounds" />
          </mxGeometry>
        </mxCell>
        <mxCell id="WlaR65cunMCcRaufkru7-10" value="name" style="shape=partialRectangle;connectable=0;fillColor=none;top=0;left=0;bottom=0;right=0;align=left;spacingLeft=6;overflow=hidden;html=1;whiteSpace=wrap;" parent="WlaR65cunMCcRaufkru7-8" vertex="1">
          <mxGeometry x="36.549957275390625" width="143.45004272460938" height="30" as="geometry">
            <mxRectangle width="143.45004272460938" height="30" as="alternateBounds" />
          </mxGeometry>
        </mxCell>
        <mxCell id="WlaR65cunMCcRaufkru7-11" value="" style="shape=tableRow;horizontal=0;startSize=0;swimlaneHead=0;swimlaneBody=0;fillColor=none;collapsible=0;dropTarget=0;points=[[0,0.5],[1,0.5]];portConstraint=eastwest;top=0;left=0;right=0;bottom=0;html=1;" parent="WlaR65cunMCcRaufkru7-1" vertex="1">
          <mxGeometry y="90" width="180" height="36" as="geometry" />
        </mxCell>
        <mxCell id="WlaR65cunMCcRaufkru7-12" value="" style="shape=partialRectangle;connectable=0;fillColor=none;top=0;left=0;bottom=0;right=0;editable=1;overflow=hidden;html=1;whiteSpace=wrap;" parent="WlaR65cunMCcRaufkru7-11" vertex="1">
          <mxGeometry width="36.549957275390625" height="36" as="geometry">
            <mxRectangle width="36.549957275390625" height="36" as="alternateBounds" />
          </mxGeometry>
        </mxCell>
        <mxCell id="WlaR65cunMCcRaufkru7-13" value="email" style="shape=partialRectangle;connectable=0;fillColor=none;top=0;left=0;bottom=0;right=0;align=left;spacingLeft=6;overflow=hidden;html=1;whiteSpace=wrap;" parent="WlaR65cunMCcRaufkru7-11" vertex="1">
          <mxGeometry x="36.549957275390625" width="143.45004272460938" height="36" as="geometry">
            <mxRectangle width="143.45004272460938" height="36" as="alternateBounds" />
          </mxGeometry>
        </mxCell>
        <mxCell id="WlaR65cunMCcRaufkru7-14" value="" style="shape=tableRow;horizontal=0;startSize=0;swimlaneHead=0;swimlaneBody=0;fillColor=none;collapsible=0;dropTarget=0;points=[[0,0.5],[1,0.5]];portConstraint=eastwest;top=0;left=0;right=0;bottom=0;html=1;" parent="WlaR65cunMCcRaufkru7-1" vertex="1">
          <mxGeometry y="126" width="180" height="30" as="geometry" />
        </mxCell>
        <mxCell id="WlaR65cunMCcRaufkru7-15" value="" style="shape=partialRectangle;connectable=0;fillColor=none;top=0;left=0;bottom=0;right=0;editable=1;overflow=hidden;html=1;whiteSpace=wrap;" parent="WlaR65cunMCcRaufkru7-14" vertex="1">
          <mxGeometry width="36.549957275390625" height="30" as="geometry">
            <mxRectangle width="36.549957275390625" height="30" as="alternateBounds" />
          </mxGeometry>
        </mxCell>
        <mxCell id="WlaR65cunMCcRaufkru7-16" value="password" style="shape=partialRectangle;connectable=0;fillColor=none;top=0;left=0;bottom=0;right=0;align=left;spacingLeft=6;overflow=hidden;html=1;whiteSpace=wrap;" parent="WlaR65cunMCcRaufkru7-14" vertex="1">
          <mxGeometry x="36.549957275390625" width="143.45004272460938" height="30" as="geometry">
            <mxRectangle width="143.45004272460938" height="30" as="alternateBounds" />
          </mxGeometry>
        </mxCell>
        <mxCell id="LId1oRx_qqmkx63bjs2s-44" value="" style="shape=tableRow;horizontal=0;startSize=0;swimlaneHead=0;swimlaneBody=0;fillColor=none;collapsible=0;dropTarget=0;points=[[0,0.5],[1,0.5]];portConstraint=eastwest;top=0;left=0;right=0;bottom=0;html=1;" parent="WlaR65cunMCcRaufkru7-1" vertex="1">
          <mxGeometry y="156" width="180" height="30" as="geometry" />
        </mxCell>
        <mxCell id="LId1oRx_qqmkx63bjs2s-45" value="" style="shape=partialRectangle;connectable=0;fillColor=none;top=0;left=0;bottom=0;right=0;editable=1;overflow=hidden;html=1;whiteSpace=wrap;" parent="LId1oRx_qqmkx63bjs2s-44" vertex="1">
          <mxGeometry width="36.549957275390625" height="30" as="geometry">
            <mxRectangle width="36.549957275390625" height="30" as="alternateBounds" />
          </mxGeometry>
        </mxCell>
        <mxCell id="LId1oRx_qqmkx63bjs2s-46" value="registration_date" style="shape=partialRectangle;connectable=0;fillColor=none;top=0;left=0;bottom=0;right=0;align=left;spacingLeft=6;overflow=hidden;html=1;whiteSpace=wrap;" parent="LId1oRx_qqmkx63bjs2s-44" vertex="1">
          <mxGeometry x="36.549957275390625" width="143.45004272460938" height="30" as="geometry">
            <mxRectangle width="143.45004272460938" height="30" as="alternateBounds" />
          </mxGeometry>
        </mxCell>
        <mxCell id="WlaR65cunMCcRaufkru7-20" value="trainer" style="shape=table;startSize=30;container=1;collapsible=1;childLayout=tableLayout;fixedRows=1;rowLines=0;fontStyle=1;align=center;resizeLast=1;html=1;whiteSpace=wrap;" parent="1" vertex="1">
          <mxGeometry x="45" y="257" width="180" height="216" as="geometry" />
        </mxCell>
        <mxCell id="WlaR65cunMCcRaufkru7-21" value="" style="shape=tableRow;horizontal=0;startSize=0;swimlaneHead=0;swimlaneBody=0;fillColor=none;collapsible=0;dropTarget=0;points=[[0,0.5],[1,0.5]];portConstraint=eastwest;top=0;left=0;right=0;bottom=0;html=1;" parent="WlaR65cunMCcRaufkru7-20" vertex="1">
          <mxGeometry y="30" width="180" height="30" as="geometry" />
        </mxCell>
        <mxCell id="WlaR65cunMCcRaufkru7-22" value="PK" style="shape=partialRectangle;connectable=0;fillColor=none;top=0;left=0;bottom=0;right=0;fontStyle=1;overflow=hidden;html=1;whiteSpace=wrap;" parent="WlaR65cunMCcRaufkru7-21" vertex="1">
          <mxGeometry width="36.549957275390625" height="30" as="geometry">
            <mxRectangle width="36.549957275390625" height="30" as="alternateBounds" />
          </mxGeometry>
        </mxCell>
        <mxCell id="WlaR65cunMCcRaufkru7-23" value="trainer_id" style="shape=partialRectangle;connectable=0;fillColor=none;top=0;left=0;bottom=0;right=0;align=left;spacingLeft=6;fontStyle=5;overflow=hidden;html=1;whiteSpace=wrap;" parent="WlaR65cunMCcRaufkru7-21" vertex="1">
          <mxGeometry x="36.549957275390625" width="143.45004272460938" height="30" as="geometry">
            <mxRectangle width="143.45004272460938" height="30" as="alternateBounds" />
          </mxGeometry>
        </mxCell>
        <mxCell id="WlaR65cunMCcRaufkru7-24" value="" style="shape=tableRow;horizontal=0;startSize=0;swimlaneHead=0;swimlaneBody=0;fillColor=none;collapsible=0;dropTarget=0;points=[[0,0.5],[1,0.5]];portConstraint=eastwest;top=0;left=0;right=0;bottom=0;html=1;" parent="WlaR65cunMCcRaufkru7-20" vertex="1">
          <mxGeometry y="60" width="180" height="30" as="geometry" />
        </mxCell>
        <mxCell id="WlaR65cunMCcRaufkru7-25" value="" style="shape=partialRectangle;connectable=0;fillColor=none;top=0;left=0;bottom=0;right=0;editable=1;overflow=hidden;html=1;whiteSpace=wrap;" parent="WlaR65cunMCcRaufkru7-24" vertex="1">
          <mxGeometry width="36.549957275390625" height="30" as="geometry">
            <mxRectangle width="36.549957275390625" height="30" as="alternateBounds" />
          </mxGeometry>
        </mxCell>
        <mxCell id="WlaR65cunMCcRaufkru7-26" value="name" style="shape=partialRectangle;connectable=0;fillColor=none;top=0;left=0;bottom=0;right=0;align=left;spacingLeft=6;overflow=hidden;html=1;whiteSpace=wrap;" parent="WlaR65cunMCcRaufkru7-24" vertex="1">
          <mxGeometry x="36.549957275390625" width="143.45004272460938" height="30" as="geometry">
            <mxRectangle width="143.45004272460938" height="30" as="alternateBounds" />
          </mxGeometry>
        </mxCell>
        <mxCell id="WlaR65cunMCcRaufkru7-27" value="" style="shape=tableRow;horizontal=0;startSize=0;swimlaneHead=0;swimlaneBody=0;fillColor=none;collapsible=0;dropTarget=0;points=[[0,0.5],[1,0.5]];portConstraint=eastwest;top=0;left=0;right=0;bottom=0;html=1;" parent="WlaR65cunMCcRaufkru7-20" vertex="1">
          <mxGeometry y="90" width="180" height="36" as="geometry" />
        </mxCell>
        <mxCell id="WlaR65cunMCcRaufkru7-28" value="" style="shape=partialRectangle;connectable=0;fillColor=none;top=0;left=0;bottom=0;right=0;editable=1;overflow=hidden;html=1;whiteSpace=wrap;" parent="WlaR65cunMCcRaufkru7-27" vertex="1">
          <mxGeometry width="36.549957275390625" height="36" as="geometry">
            <mxRectangle width="36.549957275390625" height="36" as="alternateBounds" />
          </mxGeometry>
        </mxCell>
        <mxCell id="WlaR65cunMCcRaufkru7-29" value="email" style="shape=partialRectangle;connectable=0;fillColor=none;top=0;left=0;bottom=0;right=0;align=left;spacingLeft=6;overflow=hidden;html=1;whiteSpace=wrap;" parent="WlaR65cunMCcRaufkru7-27" vertex="1">
          <mxGeometry x="36.549957275390625" width="143.45004272460938" height="36" as="geometry">
            <mxRectangle width="143.45004272460938" height="36" as="alternateBounds" />
          </mxGeometry>
        </mxCell>
        <mxCell id="WlaR65cunMCcRaufkru7-30" value="" style="shape=tableRow;horizontal=0;startSize=0;swimlaneHead=0;swimlaneBody=0;fillColor=none;collapsible=0;dropTarget=0;points=[[0,0.5],[1,0.5]];portConstraint=eastwest;top=0;left=0;right=0;bottom=0;html=1;" parent="WlaR65cunMCcRaufkru7-20" vertex="1">
          <mxGeometry y="126" width="180" height="30" as="geometry" />
        </mxCell>
        <mxCell id="WlaR65cunMCcRaufkru7-31" value="" style="shape=partialRectangle;connectable=0;fillColor=none;top=0;left=0;bottom=0;right=0;editable=1;overflow=hidden;html=1;whiteSpace=wrap;" parent="WlaR65cunMCcRaufkru7-30" vertex="1">
          <mxGeometry width="36.549957275390625" height="30" as="geometry">
            <mxRectangle width="36.549957275390625" height="30" as="alternateBounds" />
          </mxGeometry>
        </mxCell>
        <mxCell id="WlaR65cunMCcRaufkru7-32" value="password" style="shape=partialRectangle;connectable=0;fillColor=none;top=0;left=0;bottom=0;right=0;align=left;spacingLeft=6;overflow=hidden;html=1;whiteSpace=wrap;" parent="WlaR65cunMCcRaufkru7-30" vertex="1">
          <mxGeometry x="36.549957275390625" width="143.45004272460938" height="30" as="geometry">
            <mxRectangle width="143.45004272460938" height="30" as="alternateBounds" />
          </mxGeometry>
        </mxCell>
        <mxCell id="WlaR65cunMCcRaufkru7-33" value="" style="shape=tableRow;horizontal=0;startSize=0;swimlaneHead=0;swimlaneBody=0;fillColor=none;collapsible=0;dropTarget=0;points=[[0,0.5],[1,0.5]];portConstraint=eastwest;top=0;left=0;right=0;bottom=0;html=1;" parent="WlaR65cunMCcRaufkru7-20" vertex="1">
          <mxGeometry y="156" width="180" height="30" as="geometry" />
        </mxCell>
        <mxCell id="WlaR65cunMCcRaufkru7-34" value="" style="shape=partialRectangle;connectable=0;fillColor=none;top=0;left=0;bottom=0;right=0;editable=1;overflow=hidden;html=1;whiteSpace=wrap;" parent="WlaR65cunMCcRaufkru7-33" vertex="1">
          <mxGeometry width="36.549957275390625" height="30" as="geometry">
            <mxRectangle width="36.549957275390625" height="30" as="alternateBounds" />
          </mxGeometry>
        </mxCell>
        <mxCell id="WlaR65cunMCcRaufkru7-35" value="image" style="shape=partialRectangle;connectable=0;fillColor=none;top=0;left=0;bottom=0;right=0;align=left;spacingLeft=6;overflow=hidden;html=1;whiteSpace=wrap;" parent="WlaR65cunMCcRaufkru7-33" vertex="1">
          <mxGeometry x="36.549957275390625" width="143.45004272460938" height="30" as="geometry">
            <mxRectangle width="143.45004272460938" height="30" as="alternateBounds" />
          </mxGeometry>
        </mxCell>
        <mxCell id="WlaR65cunMCcRaufkru7-52" value="" style="shape=tableRow;horizontal=0;startSize=0;swimlaneHead=0;swimlaneBody=0;fillColor=none;collapsible=0;dropTarget=0;points=[[0,0.5],[1,0.5]];portConstraint=eastwest;top=0;left=0;right=0;bottom=0;html=1;" parent="WlaR65cunMCcRaufkru7-20" vertex="1">
          <mxGeometry y="186" width="180" height="30" as="geometry" />
        </mxCell>
        <mxCell id="WlaR65cunMCcRaufkru7-53" value="" style="shape=partialRectangle;connectable=0;fillColor=none;top=0;left=0;bottom=0;right=0;editable=1;overflow=hidden;html=1;whiteSpace=wrap;" parent="WlaR65cunMCcRaufkru7-52" vertex="1">
          <mxGeometry width="36.549957275390625" height="30" as="geometry">
            <mxRectangle width="36.549957275390625" height="30" as="alternateBounds" />
          </mxGeometry>
        </mxCell>
        <mxCell id="WlaR65cunMCcRaufkru7-54" value="specialty" style="shape=partialRectangle;connectable=0;fillColor=none;top=0;left=0;bottom=0;right=0;align=left;spacingLeft=6;overflow=hidden;html=1;whiteSpace=wrap;" parent="WlaR65cunMCcRaufkru7-52" vertex="1">
          <mxGeometry x="36.549957275390625" width="143.45004272460938" height="30" as="geometry">
            <mxRectangle width="143.45004272460938" height="30" as="alternateBounds" />
          </mxGeometry>
        </mxCell>
        <mxCell id="WlaR65cunMCcRaufkru7-36" value="trainer_availability" style="shape=table;startSize=30;container=1;collapsible=1;childLayout=tableLayout;fixedRows=1;rowLines=0;fontStyle=1;align=center;resizeLast=1;html=1;whiteSpace=wrap;" parent="1" vertex="1">
          <mxGeometry x="353" y="272" width="180" height="186" as="geometry" />
        </mxCell>
        <mxCell id="WlaR65cunMCcRaufkru7-37" value="" style="shape=tableRow;horizontal=0;startSize=0;swimlaneHead=0;swimlaneBody=0;fillColor=none;collapsible=0;dropTarget=0;points=[[0,0.5],[1,0.5]];portConstraint=eastwest;top=0;left=0;right=0;bottom=0;html=1;" parent="WlaR65cunMCcRaufkru7-36" vertex="1">
          <mxGeometry y="30" width="180" height="30" as="geometry" />
        </mxCell>
        <mxCell id="WlaR65cunMCcRaufkru7-38" value="PK" style="shape=partialRectangle;connectable=0;fillColor=none;top=0;left=0;bottom=0;right=0;fontStyle=1;overflow=hidden;html=1;whiteSpace=wrap;" parent="WlaR65cunMCcRaufkru7-37" vertex="1">
          <mxGeometry width="36.549957275390625" height="30" as="geometry">
            <mxRectangle width="36.549957275390625" height="30" as="alternateBounds" />
          </mxGeometry>
        </mxCell>
        <mxCell id="WlaR65cunMCcRaufkru7-39" value="availability_id" style="shape=partialRectangle;connectable=0;fillColor=none;top=0;left=0;bottom=0;right=0;align=left;spacingLeft=6;fontStyle=5;overflow=hidden;html=1;whiteSpace=wrap;" parent="WlaR65cunMCcRaufkru7-37" vertex="1">
          <mxGeometry x="36.549957275390625" width="143.45004272460938" height="30" as="geometry">
            <mxRectangle width="143.45004272460938" height="30" as="alternateBounds" />
          </mxGeometry>
        </mxCell>
        <mxCell id="WlaR65cunMCcRaufkru7-313" value="" style="shape=tableRow;horizontal=0;startSize=0;swimlaneHead=0;swimlaneBody=0;fillColor=none;collapsible=0;dropTarget=0;points=[[0,0.5],[1,0.5]];portConstraint=eastwest;top=0;left=0;right=0;bottom=0;html=1;" parent="WlaR65cunMCcRaufkru7-36" vertex="1">
          <mxGeometry y="60" width="180" height="30" as="geometry" />
        </mxCell>
        <mxCell id="WlaR65cunMCcRaufkru7-314" value="FK" style="shape=partialRectangle;connectable=0;fillColor=none;top=0;left=0;bottom=0;right=0;editable=1;overflow=hidden;html=1;whiteSpace=wrap;" parent="WlaR65cunMCcRaufkru7-313" vertex="1">
          <mxGeometry width="36.549957275390625" height="30" as="geometry">
            <mxRectangle width="36.549957275390625" height="30" as="alternateBounds" />
          </mxGeometry>
        </mxCell>
        <mxCell id="WlaR65cunMCcRaufkru7-315" value="trainer_id" style="shape=partialRectangle;connectable=0;fillColor=none;top=0;left=0;bottom=0;right=0;align=left;spacingLeft=6;overflow=hidden;html=1;whiteSpace=wrap;" parent="WlaR65cunMCcRaufkru7-313" vertex="1">
          <mxGeometry x="36.549957275390625" width="143.45004272460938" height="30" as="geometry">
            <mxRectangle width="143.45004272460938" height="30" as="alternateBounds" />
          </mxGeometry>
        </mxCell>
        <mxCell id="WlaR65cunMCcRaufkru7-40" value="" style="shape=tableRow;horizontal=0;startSize=0;swimlaneHead=0;swimlaneBody=0;fillColor=none;collapsible=0;dropTarget=0;points=[[0,0.5],[1,0.5]];portConstraint=eastwest;top=0;left=0;right=0;bottom=0;html=1;" parent="WlaR65cunMCcRaufkru7-36" vertex="1">
          <mxGeometry y="90" width="180" height="30" as="geometry" />
        </mxCell>
        <mxCell id="WlaR65cunMCcRaufkru7-41" value="" style="shape=partialRectangle;connectable=0;fillColor=none;top=0;left=0;bottom=0;right=0;editable=1;overflow=hidden;html=1;whiteSpace=wrap;" parent="WlaR65cunMCcRaufkru7-40" vertex="1">
          <mxGeometry width="36.549957275390625" height="30" as="geometry">
            <mxRectangle width="36.549957275390625" height="30" as="alternateBounds" />
          </mxGeometry>
        </mxCell>
        <mxCell id="WlaR65cunMCcRaufkru7-42" value="day" style="shape=partialRectangle;connectable=0;fillColor=none;top=0;left=0;bottom=0;right=0;align=left;spacingLeft=6;overflow=hidden;html=1;whiteSpace=wrap;" parent="WlaR65cunMCcRaufkru7-40" vertex="1">
          <mxGeometry x="36.549957275390625" width="143.45004272460938" height="30" as="geometry">
            <mxRectangle width="143.45004272460938" height="30" as="alternateBounds" />
          </mxGeometry>
        </mxCell>
        <mxCell id="WlaR65cunMCcRaufkru7-43" value="" style="shape=tableRow;horizontal=0;startSize=0;swimlaneHead=0;swimlaneBody=0;fillColor=none;collapsible=0;dropTarget=0;points=[[0,0.5],[1,0.5]];portConstraint=eastwest;top=0;left=0;right=0;bottom=0;html=1;" parent="WlaR65cunMCcRaufkru7-36" vertex="1">
          <mxGeometry y="120" width="180" height="36" as="geometry" />
        </mxCell>
        <mxCell id="WlaR65cunMCcRaufkru7-44" value="" style="shape=partialRectangle;connectable=0;fillColor=none;top=0;left=0;bottom=0;right=0;editable=1;overflow=hidden;html=1;whiteSpace=wrap;" parent="WlaR65cunMCcRaufkru7-43" vertex="1">
          <mxGeometry width="36.549957275390625" height="36" as="geometry">
            <mxRectangle width="36.549957275390625" height="36" as="alternateBounds" />
          </mxGeometry>
        </mxCell>
        <mxCell id="WlaR65cunMCcRaufkru7-45" value="start" style="shape=partialRectangle;connectable=0;fillColor=none;top=0;left=0;bottom=0;right=0;align=left;spacingLeft=6;overflow=hidden;html=1;whiteSpace=wrap;" parent="WlaR65cunMCcRaufkru7-43" vertex="1">
          <mxGeometry x="36.549957275390625" width="143.45004272460938" height="36" as="geometry">
            <mxRectangle width="143.45004272460938" height="36" as="alternateBounds" />
          </mxGeometry>
        </mxCell>
        <mxCell id="WlaR65cunMCcRaufkru7-46" value="" style="shape=tableRow;horizontal=0;startSize=0;swimlaneHead=0;swimlaneBody=0;fillColor=none;collapsible=0;dropTarget=0;points=[[0,0.5],[1,0.5]];portConstraint=eastwest;top=0;left=0;right=0;bottom=0;html=1;" parent="WlaR65cunMCcRaufkru7-36" vertex="1">
          <mxGeometry y="156" width="180" height="30" as="geometry" />
        </mxCell>
        <mxCell id="WlaR65cunMCcRaufkru7-47" value="" style="shape=partialRectangle;connectable=0;fillColor=none;top=0;left=0;bottom=0;right=0;editable=1;overflow=hidden;html=1;whiteSpace=wrap;" parent="WlaR65cunMCcRaufkru7-46" vertex="1">
          <mxGeometry width="36.549957275390625" height="30" as="geometry">
            <mxRectangle width="36.549957275390625" height="30" as="alternateBounds" />
          </mxGeometry>
        </mxCell>
        <mxCell id="WlaR65cunMCcRaufkru7-48" value="end" style="shape=partialRectangle;connectable=0;fillColor=none;top=0;left=0;bottom=0;right=0;align=left;spacingLeft=6;overflow=hidden;html=1;whiteSpace=wrap;" parent="WlaR65cunMCcRaufkru7-46" vertex="1">
          <mxGeometry x="36.549957275390625" width="143.45004272460938" height="30" as="geometry">
            <mxRectangle width="143.45004272460938" height="30" as="alternateBounds" />
          </mxGeometry>
        </mxCell>
        <mxCell id="WlaR65cunMCcRaufkru7-58" value="member_health_metric" style="shape=table;startSize=30;container=1;collapsible=1;childLayout=tableLayout;fixedRows=1;rowLines=0;fontStyle=1;align=center;resizeLast=1;html=1;whiteSpace=wrap;" parent="1" vertex="1">
          <mxGeometry x="-572" y="39" width="180" height="186" as="geometry" />
        </mxCell>
        <mxCell id="WlaR65cunMCcRaufkru7-59" value="" style="shape=tableRow;horizontal=0;startSize=0;swimlaneHead=0;swimlaneBody=0;fillColor=none;collapsible=0;dropTarget=0;points=[[0,0.5],[1,0.5]];portConstraint=eastwest;top=0;left=0;right=0;bottom=0;html=1;" parent="WlaR65cunMCcRaufkru7-58" vertex="1">
          <mxGeometry y="30" width="180" height="30" as="geometry" />
        </mxCell>
        <mxCell id="WlaR65cunMCcRaufkru7-60" value="" style="shape=partialRectangle;connectable=0;fillColor=none;top=0;left=0;bottom=0;right=0;fontStyle=1;overflow=hidden;html=1;whiteSpace=wrap;" parent="WlaR65cunMCcRaufkru7-59" vertex="1">
          <mxGeometry width="36.549957275390625" height="30" as="geometry">
            <mxRectangle width="36.549957275390625" height="30" as="alternateBounds" />
          </mxGeometry>
        </mxCell>
        <mxCell id="WlaR65cunMCcRaufkru7-61" value="" style="shape=partialRectangle;connectable=0;fillColor=none;top=0;left=0;bottom=0;right=0;align=left;spacingLeft=6;fontStyle=5;overflow=hidden;html=1;whiteSpace=wrap;" parent="WlaR65cunMCcRaufkru7-59" vertex="1">
          <mxGeometry x="36.549957275390625" width="143.45004272460938" height="30" as="geometry">
            <mxRectangle width="143.45004272460938" height="30" as="alternateBounds" />
          </mxGeometry>
        </mxCell>
        <mxCell id="WlaR65cunMCcRaufkru7-286" value="" style="shape=tableRow;horizontal=0;startSize=0;swimlaneHead=0;swimlaneBody=0;fillColor=none;collapsible=0;dropTarget=0;points=[[0,0.5],[1,0.5]];portConstraint=eastwest;top=0;left=0;right=0;bottom=0;html=1;fontStyle=1" parent="WlaR65cunMCcRaufkru7-58" vertex="1">
          <mxGeometry y="60" width="180" height="30" as="geometry" />
        </mxCell>
        <mxCell id="WlaR65cunMCcRaufkru7-287" value="&lt;b&gt;FK&lt;/b&gt;" style="shape=partialRectangle;connectable=0;fillColor=none;top=0;left=0;bottom=0;right=0;editable=1;overflow=hidden;html=1;whiteSpace=wrap;" parent="WlaR65cunMCcRaufkru7-286" vertex="1">
          <mxGeometry width="36.549957275390625" height="30" as="geometry">
            <mxRectangle width="36.549957275390625" height="30" as="alternateBounds" />
          </mxGeometry>
        </mxCell>
        <mxCell id="WlaR65cunMCcRaufkru7-288" value="member_id" style="shape=partialRectangle;connectable=0;fillColor=none;top=0;left=0;bottom=0;right=0;align=left;spacingLeft=6;overflow=hidden;html=1;whiteSpace=wrap;fontStyle=5" parent="WlaR65cunMCcRaufkru7-286" vertex="1">
          <mxGeometry x="36.549957275390625" width="143.45004272460938" height="30" as="geometry">
            <mxRectangle width="143.45004272460938" height="30" as="alternateBounds" />
          </mxGeometry>
        </mxCell>
        <mxCell id="WlaR65cunMCcRaufkru7-65" value="" style="shape=tableRow;horizontal=0;startSize=0;swimlaneHead=0;swimlaneBody=0;fillColor=none;collapsible=0;dropTarget=0;points=[[0,0.5],[1,0.5]];portConstraint=eastwest;top=0;left=0;right=0;bottom=0;html=1;" parent="WlaR65cunMCcRaufkru7-58" vertex="1">
          <mxGeometry y="90" width="180" height="30" as="geometry" />
        </mxCell>
        <mxCell id="WlaR65cunMCcRaufkru7-66" value="&lt;b&gt;FK&lt;/b&gt;" style="shape=partialRectangle;connectable=0;fillColor=none;top=0;left=0;bottom=0;right=0;editable=1;overflow=hidden;html=1;whiteSpace=wrap;" parent="WlaR65cunMCcRaufkru7-65" vertex="1">
          <mxGeometry width="36.549957275390625" height="30" as="geometry">
            <mxRectangle width="36.549957275390625" height="30" as="alternateBounds" />
          </mxGeometry>
        </mxCell>
        <mxCell id="WlaR65cunMCcRaufkru7-67" value="&lt;b&gt;health_metric_id&lt;/b&gt;" style="shape=partialRectangle;connectable=0;fillColor=none;top=0;left=0;bottom=0;right=0;align=left;spacingLeft=6;overflow=hidden;html=1;whiteSpace=wrap;fontStyle=4" parent="WlaR65cunMCcRaufkru7-65" vertex="1">
          <mxGeometry x="36.549957275390625" width="143.45004272460938" height="30" as="geometry">
            <mxRectangle width="143.45004272460938" height="30" as="alternateBounds" />
          </mxGeometry>
        </mxCell>
        <mxCell id="WlaR65cunMCcRaufkru7-68" value="" style="shape=tableRow;horizontal=0;startSize=0;swimlaneHead=0;swimlaneBody=0;fillColor=none;collapsible=0;dropTarget=0;points=[[0,0.5],[1,0.5]];portConstraint=eastwest;top=0;left=0;right=0;bottom=0;html=1;" parent="WlaR65cunMCcRaufkru7-58" vertex="1">
          <mxGeometry y="120" width="180" height="36" as="geometry" />
        </mxCell>
        <mxCell id="WlaR65cunMCcRaufkru7-69" value="" style="shape=partialRectangle;connectable=0;fillColor=none;top=0;left=0;bottom=0;right=0;editable=1;overflow=hidden;html=1;whiteSpace=wrap;" parent="WlaR65cunMCcRaufkru7-68" vertex="1">
          <mxGeometry width="36.549957275390625" height="36" as="geometry">
            <mxRectangle width="36.549957275390625" height="36" as="alternateBounds" />
          </mxGeometry>
        </mxCell>
        <mxCell id="WlaR65cunMCcRaufkru7-70" value="current_value" style="shape=partialRectangle;connectable=0;fillColor=none;top=0;left=0;bottom=0;right=0;align=left;spacingLeft=6;overflow=hidden;html=1;whiteSpace=wrap;" parent="WlaR65cunMCcRaufkru7-68" vertex="1">
          <mxGeometry x="36.549957275390625" width="143.45004272460938" height="36" as="geometry">
            <mxRectangle width="143.45004272460938" height="36" as="alternateBounds" />
          </mxGeometry>
        </mxCell>
        <mxCell id="WlaR65cunMCcRaufkru7-71" value="" style="shape=tableRow;horizontal=0;startSize=0;swimlaneHead=0;swimlaneBody=0;fillColor=none;collapsible=0;dropTarget=0;points=[[0,0.5],[1,0.5]];portConstraint=eastwest;top=0;left=0;right=0;bottom=0;html=1;" parent="WlaR65cunMCcRaufkru7-58" vertex="1">
          <mxGeometry y="156" width="180" height="30" as="geometry" />
        </mxCell>
        <mxCell id="WlaR65cunMCcRaufkru7-72" value="" style="shape=partialRectangle;connectable=0;fillColor=none;top=0;left=0;bottom=0;right=0;editable=1;overflow=hidden;html=1;whiteSpace=wrap;" parent="WlaR65cunMCcRaufkru7-71" vertex="1">
          <mxGeometry width="36.549957275390625" height="30" as="geometry">
            <mxRectangle width="36.549957275390625" height="30" as="alternateBounds" />
          </mxGeometry>
        </mxCell>
        <mxCell id="WlaR65cunMCcRaufkru7-73" value="last_updated" style="shape=partialRectangle;connectable=0;fillColor=none;top=0;left=0;bottom=0;right=0;align=left;spacingLeft=6;overflow=hidden;html=1;whiteSpace=wrap;" parent="WlaR65cunMCcRaufkru7-71" vertex="1">
          <mxGeometry x="36.549957275390625" width="143.45004272460938" height="30" as="geometry">
            <mxRectangle width="143.45004272460938" height="30" as="alternateBounds" />
          </mxGeometry>
        </mxCell>
        <mxCell id="WlaR65cunMCcRaufkru7-93" value="member_routine" style="shape=table;startSize=30;container=1;collapsible=1;childLayout=tableLayout;fixedRows=1;rowLines=0;fontStyle=1;align=center;resizeLast=1;html=1;whiteSpace=wrap;" parent="1" vertex="1">
          <mxGeometry x="-877" y="369" width="180" height="210" as="geometry" />
        </mxCell>
        <mxCell id="WlaR65cunMCcRaufkru7-94" value="" style="shape=tableRow;horizontal=0;startSize=0;swimlaneHead=0;swimlaneBody=0;fillColor=none;collapsible=0;dropTarget=0;points=[[0,0.5],[1,0.5]];portConstraint=eastwest;top=0;left=0;right=0;bottom=0;html=1;" parent="WlaR65cunMCcRaufkru7-93" vertex="1">
          <mxGeometry y="30" width="180" height="30" as="geometry" />
        </mxCell>
        <mxCell id="WlaR65cunMCcRaufkru7-95" value="PK" style="shape=partialRectangle;connectable=0;fillColor=none;top=0;left=0;bottom=0;right=0;fontStyle=1;overflow=hidden;html=1;whiteSpace=wrap;" parent="WlaR65cunMCcRaufkru7-94" vertex="1">
          <mxGeometry width="36.549957275390625" height="30" as="geometry">
            <mxRectangle width="36.549957275390625" height="30" as="alternateBounds" />
          </mxGeometry>
        </mxCell>
        <mxCell id="WlaR65cunMCcRaufkru7-96" value="routine_id" style="shape=partialRectangle;connectable=0;fillColor=none;top=0;left=0;bottom=0;right=0;align=left;spacingLeft=6;fontStyle=5;overflow=hidden;html=1;whiteSpace=wrap;" parent="WlaR65cunMCcRaufkru7-94" vertex="1">
          <mxGeometry x="36.549957275390625" width="143.45004272460938" height="30" as="geometry">
            <mxRectangle width="143.45004272460938" height="30" as="alternateBounds" />
          </mxGeometry>
        </mxCell>
        <mxCell id="WlaR65cunMCcRaufkru7-230" value="" style="shape=tableRow;horizontal=0;startSize=0;swimlaneHead=0;swimlaneBody=0;fillColor=none;collapsible=0;dropTarget=0;points=[[0,0.5],[1,0.5]];portConstraint=eastwest;top=0;left=0;right=0;bottom=0;html=1;" parent="WlaR65cunMCcRaufkru7-93" vertex="1">
          <mxGeometry y="60" width="180" height="30" as="geometry" />
        </mxCell>
        <mxCell id="WlaR65cunMCcRaufkru7-231" value="FK" style="shape=partialRectangle;connectable=0;fillColor=none;top=0;left=0;bottom=0;right=0;editable=1;overflow=hidden;html=1;whiteSpace=wrap;" parent="WlaR65cunMCcRaufkru7-230" vertex="1">
          <mxGeometry width="36.549957275390625" height="30" as="geometry">
            <mxRectangle width="36.549957275390625" height="30" as="alternateBounds" />
          </mxGeometry>
        </mxCell>
        <mxCell id="WlaR65cunMCcRaufkru7-232" value="member_id" style="shape=partialRectangle;connectable=0;fillColor=none;top=0;left=0;bottom=0;right=0;align=left;spacingLeft=6;overflow=hidden;html=1;whiteSpace=wrap;" parent="WlaR65cunMCcRaufkru7-230" vertex="1">
          <mxGeometry x="36.549957275390625" width="143.45004272460938" height="30" as="geometry">
            <mxRectangle width="143.45004272460938" height="30" as="alternateBounds" />
          </mxGeometry>
        </mxCell>
        <mxCell id="WlaR65cunMCcRaufkru7-100" value="" style="shape=tableRow;horizontal=0;startSize=0;swimlaneHead=0;swimlaneBody=0;fillColor=none;collapsible=0;dropTarget=0;points=[[0,0.5],[1,0.5]];portConstraint=eastwest;top=0;left=0;right=0;bottom=0;html=1;" parent="WlaR65cunMCcRaufkru7-93" vertex="1">
          <mxGeometry y="90" width="180" height="30" as="geometry" />
        </mxCell>
        <mxCell id="WlaR65cunMCcRaufkru7-101" value="" style="shape=partialRectangle;connectable=0;fillColor=none;top=0;left=0;bottom=0;right=0;editable=1;overflow=hidden;html=1;whiteSpace=wrap;" parent="WlaR65cunMCcRaufkru7-100" vertex="1">
          <mxGeometry width="36.549957275390625" height="30" as="geometry">
            <mxRectangle width="36.549957275390625" height="30" as="alternateBounds" />
          </mxGeometry>
        </mxCell>
        <mxCell id="WlaR65cunMCcRaufkru7-102" value="name" style="shape=partialRectangle;connectable=0;fillColor=none;top=0;left=0;bottom=0;right=0;align=left;spacingLeft=6;overflow=hidden;html=1;whiteSpace=wrap;" parent="WlaR65cunMCcRaufkru7-100" vertex="1">
          <mxGeometry x="36.549957275390625" width="143.45004272460938" height="30" as="geometry">
            <mxRectangle width="143.45004272460938" height="30" as="alternateBounds" />
          </mxGeometry>
        </mxCell>
        <mxCell id="WlaR65cunMCcRaufkru7-235" value="" style="shape=tableRow;horizontal=0;startSize=0;swimlaneHead=0;swimlaneBody=0;fillColor=none;collapsible=0;dropTarget=0;points=[[0,0.5],[1,0.5]];portConstraint=eastwest;top=0;left=0;right=0;bottom=0;html=1;" parent="WlaR65cunMCcRaufkru7-93" vertex="1">
          <mxGeometry y="120" width="180" height="30" as="geometry" />
        </mxCell>
        <mxCell id="WlaR65cunMCcRaufkru7-236" value="" style="shape=partialRectangle;connectable=0;fillColor=none;top=0;left=0;bottom=0;right=0;editable=1;overflow=hidden;html=1;whiteSpace=wrap;" parent="WlaR65cunMCcRaufkru7-235" vertex="1">
          <mxGeometry width="36.549957275390625" height="30" as="geometry">
            <mxRectangle width="36.549957275390625" height="30" as="alternateBounds" />
          </mxGeometry>
        </mxCell>
        <mxCell id="WlaR65cunMCcRaufkru7-237" value="duration" style="shape=partialRectangle;connectable=0;fillColor=none;top=0;left=0;bottom=0;right=0;align=left;spacingLeft=6;overflow=hidden;html=1;whiteSpace=wrap;" parent="WlaR65cunMCcRaufkru7-235" vertex="1">
          <mxGeometry x="36.549957275390625" width="143.45004272460938" height="30" as="geometry">
            <mxRectangle width="143.45004272460938" height="30" as="alternateBounds" />
          </mxGeometry>
        </mxCell>
        <mxCell id="WlaR65cunMCcRaufkru7-238" value="" style="shape=tableRow;horizontal=0;startSize=0;swimlaneHead=0;swimlaneBody=0;fillColor=none;collapsible=0;dropTarget=0;points=[[0,0.5],[1,0.5]];portConstraint=eastwest;top=0;left=0;right=0;bottom=0;html=1;" parent="WlaR65cunMCcRaufkru7-93" vertex="1">
          <mxGeometry y="150" width="180" height="30" as="geometry" />
        </mxCell>
        <mxCell id="WlaR65cunMCcRaufkru7-239" value="" style="shape=partialRectangle;connectable=0;fillColor=none;top=0;left=0;bottom=0;right=0;editable=1;overflow=hidden;html=1;whiteSpace=wrap;" parent="WlaR65cunMCcRaufkru7-238" vertex="1">
          <mxGeometry width="36.549957275390625" height="30" as="geometry">
            <mxRectangle width="36.549957275390625" height="30" as="alternateBounds" />
          </mxGeometry>
        </mxCell>
        <mxCell id="WlaR65cunMCcRaufkru7-240" value="description" style="shape=partialRectangle;connectable=0;fillColor=none;top=0;left=0;bottom=0;right=0;align=left;spacingLeft=6;overflow=hidden;html=1;whiteSpace=wrap;" parent="WlaR65cunMCcRaufkru7-238" vertex="1">
          <mxGeometry x="36.549957275390625" width="143.45004272460938" height="30" as="geometry">
            <mxRectangle width="143.45004272460938" height="30" as="alternateBounds" />
          </mxGeometry>
        </mxCell>
        <mxCell id="WlaR65cunMCcRaufkru7-241" value="" style="shape=tableRow;horizontal=0;startSize=0;swimlaneHead=0;swimlaneBody=0;fillColor=none;collapsible=0;dropTarget=0;points=[[0,0.5],[1,0.5]];portConstraint=eastwest;top=0;left=0;right=0;bottom=0;html=1;" parent="WlaR65cunMCcRaufkru7-93" vertex="1">
          <mxGeometry y="180" width="180" height="30" as="geometry" />
        </mxCell>
        <mxCell id="WlaR65cunMCcRaufkru7-242" value="" style="shape=partialRectangle;connectable=0;fillColor=none;top=0;left=0;bottom=0;right=0;editable=1;overflow=hidden;html=1;whiteSpace=wrap;" parent="WlaR65cunMCcRaufkru7-241" vertex="1">
          <mxGeometry width="36.549957275390625" height="30" as="geometry">
            <mxRectangle width="36.549957275390625" height="30" as="alternateBounds" />
          </mxGeometry>
        </mxCell>
        <mxCell id="WlaR65cunMCcRaufkru7-243" value="date_time" style="shape=partialRectangle;connectable=0;fillColor=none;top=0;left=0;bottom=0;right=0;align=left;spacingLeft=6;overflow=hidden;html=1;whiteSpace=wrap;" parent="WlaR65cunMCcRaufkru7-241" vertex="1">
          <mxGeometry x="36.549957275390625" width="143.45004272460938" height="30" as="geometry">
            <mxRectangle width="143.45004272460938" height="30" as="alternateBounds" />
          </mxGeometry>
        </mxCell>
        <mxCell id="WlaR65cunMCcRaufkru7-109" value="training_session" style="shape=table;startSize=30;container=1;collapsible=1;childLayout=tableLayout;fixedRows=1;rowLines=0;fontStyle=1;align=center;resizeLast=1;html=1;whiteSpace=wrap;" parent="1" vertex="1">
          <mxGeometry x="-243" y="267" width="180" height="222" as="geometry" />
        </mxCell>
        <mxCell id="WlaR65cunMCcRaufkru7-110" value="" style="shape=tableRow;horizontal=0;startSize=0;swimlaneHead=0;swimlaneBody=0;fillColor=none;collapsible=0;dropTarget=0;points=[[0,0.5],[1,0.5]];portConstraint=eastwest;top=0;left=0;right=0;bottom=0;html=1;" parent="WlaR65cunMCcRaufkru7-109" vertex="1">
          <mxGeometry y="30" width="180" height="30" as="geometry" />
        </mxCell>
        <mxCell id="WlaR65cunMCcRaufkru7-111" value="PK" style="shape=partialRectangle;connectable=0;fillColor=none;top=0;left=0;bottom=0;right=0;fontStyle=1;overflow=hidden;html=1;whiteSpace=wrap;" parent="WlaR65cunMCcRaufkru7-110" vertex="1">
          <mxGeometry width="36.549957275390625" height="30" as="geometry">
            <mxRectangle width="36.549957275390625" height="30" as="alternateBounds" />
          </mxGeometry>
        </mxCell>
        <mxCell id="WlaR65cunMCcRaufkru7-112" value="session_id" style="shape=partialRectangle;connectable=0;fillColor=none;top=0;left=0;bottom=0;right=0;align=left;spacingLeft=6;fontStyle=5;overflow=hidden;html=1;whiteSpace=wrap;" parent="WlaR65cunMCcRaufkru7-110" vertex="1">
          <mxGeometry x="36.549957275390625" width="143.45004272460938" height="30" as="geometry">
            <mxRectangle width="143.45004272460938" height="30" as="alternateBounds" />
          </mxGeometry>
        </mxCell>
        <mxCell id="WlaR65cunMCcRaufkru7-289" value="" style="shape=tableRow;horizontal=0;startSize=0;swimlaneHead=0;swimlaneBody=0;fillColor=none;collapsible=0;dropTarget=0;points=[[0,0.5],[1,0.5]];portConstraint=eastwest;top=0;left=0;right=0;bottom=0;html=1;" parent="WlaR65cunMCcRaufkru7-109" vertex="1">
          <mxGeometry y="60" width="180" height="30" as="geometry" />
        </mxCell>
        <mxCell id="WlaR65cunMCcRaufkru7-290" value="FK" style="shape=partialRectangle;connectable=0;fillColor=none;top=0;left=0;bottom=0;right=0;editable=1;overflow=hidden;html=1;whiteSpace=wrap;" parent="WlaR65cunMCcRaufkru7-289" vertex="1">
          <mxGeometry width="36.549957275390625" height="30" as="geometry">
            <mxRectangle width="36.549957275390625" height="30" as="alternateBounds" />
          </mxGeometry>
        </mxCell>
        <mxCell id="WlaR65cunMCcRaufkru7-291" value="member_id" style="shape=partialRectangle;connectable=0;fillColor=none;top=0;left=0;bottom=0;right=0;align=left;spacingLeft=6;overflow=hidden;html=1;whiteSpace=wrap;" parent="WlaR65cunMCcRaufkru7-289" vertex="1">
          <mxGeometry x="36.549957275390625" width="143.45004272460938" height="30" as="geometry">
            <mxRectangle width="143.45004272460938" height="30" as="alternateBounds" />
          </mxGeometry>
        </mxCell>
        <mxCell id="WlaR65cunMCcRaufkru7-292" value="" style="shape=tableRow;horizontal=0;startSize=0;swimlaneHead=0;swimlaneBody=0;fillColor=none;collapsible=0;dropTarget=0;points=[[0,0.5],[1,0.5]];portConstraint=eastwest;top=0;left=0;right=0;bottom=0;html=1;" parent="WlaR65cunMCcRaufkru7-109" vertex="1">
          <mxGeometry y="90" width="180" height="30" as="geometry" />
        </mxCell>
        <mxCell id="WlaR65cunMCcRaufkru7-293" value="FK" style="shape=partialRectangle;connectable=0;fillColor=none;top=0;left=0;bottom=0;right=0;editable=1;overflow=hidden;html=1;whiteSpace=wrap;" parent="WlaR65cunMCcRaufkru7-292" vertex="1">
          <mxGeometry width="36.549957275390625" height="30" as="geometry">
            <mxRectangle width="36.549957275390625" height="30" as="alternateBounds" />
          </mxGeometry>
        </mxCell>
        <mxCell id="WlaR65cunMCcRaufkru7-294" value="trainer_id" style="shape=partialRectangle;connectable=0;fillColor=none;top=0;left=0;bottom=0;right=0;align=left;spacingLeft=6;overflow=hidden;html=1;whiteSpace=wrap;" parent="WlaR65cunMCcRaufkru7-292" vertex="1">
          <mxGeometry x="36.549957275390625" width="143.45004272460938" height="30" as="geometry">
            <mxRectangle width="143.45004272460938" height="30" as="alternateBounds" />
          </mxGeometry>
        </mxCell>
        <mxCell id="WlaR65cunMCcRaufkru7-116" value="" style="shape=tableRow;horizontal=0;startSize=0;swimlaneHead=0;swimlaneBody=0;fillColor=none;collapsible=0;dropTarget=0;points=[[0,0.5],[1,0.5]];portConstraint=eastwest;top=0;left=0;right=0;bottom=0;html=1;" parent="WlaR65cunMCcRaufkru7-109" vertex="1">
          <mxGeometry y="120" width="180" height="30" as="geometry" />
        </mxCell>
        <mxCell id="WlaR65cunMCcRaufkru7-117" value="" style="shape=partialRectangle;connectable=0;fillColor=none;top=0;left=0;bottom=0;right=0;editable=1;overflow=hidden;html=1;whiteSpace=wrap;" parent="WlaR65cunMCcRaufkru7-116" vertex="1">
          <mxGeometry width="36.549957275390625" height="30" as="geometry">
            <mxRectangle width="36.549957275390625" height="30" as="alternateBounds" />
          </mxGeometry>
        </mxCell>
        <mxCell id="WlaR65cunMCcRaufkru7-118" value="start_date_time" style="shape=partialRectangle;connectable=0;fillColor=none;top=0;left=0;bottom=0;right=0;align=left;spacingLeft=6;overflow=hidden;html=1;whiteSpace=wrap;" parent="WlaR65cunMCcRaufkru7-116" vertex="1">
          <mxGeometry x="36.549957275390625" width="143.45004272460938" height="30" as="geometry">
            <mxRectangle width="143.45004272460938" height="30" as="alternateBounds" />
          </mxGeometry>
        </mxCell>
        <mxCell id="WlaR65cunMCcRaufkru7-119" value="" style="shape=tableRow;horizontal=0;startSize=0;swimlaneHead=0;swimlaneBody=0;fillColor=none;collapsible=0;dropTarget=0;points=[[0,0.5],[1,0.5]];portConstraint=eastwest;top=0;left=0;right=0;bottom=0;html=1;" parent="WlaR65cunMCcRaufkru7-109" vertex="1">
          <mxGeometry y="150" width="180" height="36" as="geometry" />
        </mxCell>
        <mxCell id="WlaR65cunMCcRaufkru7-120" value="" style="shape=partialRectangle;connectable=0;fillColor=none;top=0;left=0;bottom=0;right=0;editable=1;overflow=hidden;html=1;whiteSpace=wrap;" parent="WlaR65cunMCcRaufkru7-119" vertex="1">
          <mxGeometry width="36.549957275390625" height="36" as="geometry">
            <mxRectangle width="36.549957275390625" height="36" as="alternateBounds" />
          </mxGeometry>
        </mxCell>
        <mxCell id="WlaR65cunMCcRaufkru7-121" value="end_date_time" style="shape=partialRectangle;connectable=0;fillColor=none;top=0;left=0;bottom=0;right=0;align=left;spacingLeft=6;overflow=hidden;html=1;whiteSpace=wrap;" parent="WlaR65cunMCcRaufkru7-119" vertex="1">
          <mxGeometry x="36.549957275390625" width="143.45004272460938" height="36" as="geometry">
            <mxRectangle width="143.45004272460938" height="36" as="alternateBounds" />
          </mxGeometry>
        </mxCell>
        <mxCell id="WlaR65cunMCcRaufkru7-244" value="" style="shape=tableRow;horizontal=0;startSize=0;swimlaneHead=0;swimlaneBody=0;fillColor=none;collapsible=0;dropTarget=0;points=[[0,0.5],[1,0.5]];portConstraint=eastwest;top=0;left=0;right=0;bottom=0;html=1;" parent="WlaR65cunMCcRaufkru7-109" vertex="1">
          <mxGeometry y="186" width="180" height="36" as="geometry" />
        </mxCell>
        <mxCell id="WlaR65cunMCcRaufkru7-245" value="" style="shape=partialRectangle;connectable=0;fillColor=none;top=0;left=0;bottom=0;right=0;editable=1;overflow=hidden;html=1;whiteSpace=wrap;" parent="WlaR65cunMCcRaufkru7-244" vertex="1">
          <mxGeometry width="36.549957275390625" height="36" as="geometry">
            <mxRectangle width="36.549957275390625" height="36" as="alternateBounds" />
          </mxGeometry>
        </mxCell>
        <mxCell id="WlaR65cunMCcRaufkru7-246" value="status" style="shape=partialRectangle;connectable=0;fillColor=none;top=0;left=0;bottom=0;right=0;align=left;spacingLeft=6;overflow=hidden;html=1;whiteSpace=wrap;" parent="WlaR65cunMCcRaufkru7-244" vertex="1">
          <mxGeometry x="36.549957275390625" width="143.45004272460938" height="36" as="geometry">
            <mxRectangle width="143.45004272460938" height="36" as="alternateBounds" />
          </mxGeometry>
        </mxCell>
        <mxCell id="WlaR65cunMCcRaufkru7-128" value="fitness_class" style="shape=table;startSize=30;container=1;collapsible=1;childLayout=tableLayout;fixedRows=1;rowLines=0;fontStyle=1;align=center;resizeLast=1;html=1;whiteSpace=wrap;" parent="1" vertex="1">
          <mxGeometry x="-243" y="525" width="180" height="150" as="geometry" />
        </mxCell>
        <mxCell id="WlaR65cunMCcRaufkru7-129" value="" style="shape=tableRow;horizontal=0;startSize=0;swimlaneHead=0;swimlaneBody=0;fillColor=none;collapsible=0;dropTarget=0;points=[[0,0.5],[1,0.5]];portConstraint=eastwest;top=0;left=0;right=0;bottom=0;html=1;" parent="WlaR65cunMCcRaufkru7-128" vertex="1">
          <mxGeometry y="30" width="180" height="30" as="geometry" />
        </mxCell>
        <mxCell id="WlaR65cunMCcRaufkru7-130" value="PK" style="shape=partialRectangle;connectable=0;fillColor=none;top=0;left=0;bottom=0;right=0;fontStyle=1;overflow=hidden;html=1;whiteSpace=wrap;" parent="WlaR65cunMCcRaufkru7-129" vertex="1">
          <mxGeometry width="36.549957275390625" height="30" as="geometry">
            <mxRectangle width="36.549957275390625" height="30" as="alternateBounds" />
          </mxGeometry>
        </mxCell>
        <mxCell id="WlaR65cunMCcRaufkru7-131" value="class_id" style="shape=partialRectangle;connectable=0;fillColor=none;top=0;left=0;bottom=0;right=0;align=left;spacingLeft=6;fontStyle=5;overflow=hidden;html=1;whiteSpace=wrap;" parent="WlaR65cunMCcRaufkru7-129" vertex="1">
          <mxGeometry x="36.549957275390625" width="143.45004272460938" height="30" as="geometry">
            <mxRectangle width="143.45004272460938" height="30" as="alternateBounds" />
          </mxGeometry>
        </mxCell>
        <mxCell id="WlaR65cunMCcRaufkru7-316" value="" style="shape=tableRow;horizontal=0;startSize=0;swimlaneHead=0;swimlaneBody=0;fillColor=none;collapsible=0;dropTarget=0;points=[[0,0.5],[1,0.5]];portConstraint=eastwest;top=0;left=0;right=0;bottom=0;html=1;" parent="WlaR65cunMCcRaufkru7-128" vertex="1">
          <mxGeometry y="60" width="180" height="30" as="geometry" />
        </mxCell>
        <mxCell id="WlaR65cunMCcRaufkru7-317" value="FK" style="shape=partialRectangle;connectable=0;fillColor=none;top=0;left=0;bottom=0;right=0;editable=1;overflow=hidden;html=1;whiteSpace=wrap;" parent="WlaR65cunMCcRaufkru7-316" vertex="1">
          <mxGeometry width="36.549957275390625" height="30" as="geometry">
            <mxRectangle width="36.549957275390625" height="30" as="alternateBounds" />
          </mxGeometry>
        </mxCell>
        <mxCell id="WlaR65cunMCcRaufkru7-318" value="trainer_id" style="shape=partialRectangle;connectable=0;fillColor=none;top=0;left=0;bottom=0;right=0;align=left;spacingLeft=6;overflow=hidden;html=1;whiteSpace=wrap;" parent="WlaR65cunMCcRaufkru7-316" vertex="1">
          <mxGeometry x="36.549957275390625" width="143.45004272460938" height="30" as="geometry">
            <mxRectangle width="143.45004272460938" height="30" as="alternateBounds" />
          </mxGeometry>
        </mxCell>
        <mxCell id="WlaR65cunMCcRaufkru7-138" value="" style="shape=tableRow;horizontal=0;startSize=0;swimlaneHead=0;swimlaneBody=0;fillColor=none;collapsible=0;dropTarget=0;points=[[0,0.5],[1,0.5]];portConstraint=eastwest;top=0;left=0;right=0;bottom=0;html=1;" parent="WlaR65cunMCcRaufkru7-128" vertex="1">
          <mxGeometry y="90" width="180" height="30" as="geometry" />
        </mxCell>
        <mxCell id="WlaR65cunMCcRaufkru7-139" value="" style="shape=partialRectangle;connectable=0;fillColor=none;top=0;left=0;bottom=0;right=0;editable=1;overflow=hidden;html=1;whiteSpace=wrap;" parent="WlaR65cunMCcRaufkru7-138" vertex="1">
          <mxGeometry width="36.549957275390625" height="30" as="geometry">
            <mxRectangle width="36.549957275390625" height="30" as="alternateBounds" />
          </mxGeometry>
        </mxCell>
        <mxCell id="WlaR65cunMCcRaufkru7-140" value="name" style="shape=partialRectangle;connectable=0;fillColor=none;top=0;left=0;bottom=0;right=0;align=left;spacingLeft=6;overflow=hidden;html=1;whiteSpace=wrap;" parent="WlaR65cunMCcRaufkru7-138" vertex="1">
          <mxGeometry x="36.549957275390625" width="143.45004272460938" height="30" as="geometry">
            <mxRectangle width="143.45004272460938" height="30" as="alternateBounds" />
          </mxGeometry>
        </mxCell>
        <mxCell id="WlaR65cunMCcRaufkru7-179" value="" style="shape=tableRow;horizontal=0;startSize=0;swimlaneHead=0;swimlaneBody=0;fillColor=none;collapsible=0;dropTarget=0;points=[[0,0.5],[1,0.5]];portConstraint=eastwest;top=0;left=0;right=0;bottom=0;html=1;" parent="WlaR65cunMCcRaufkru7-128" vertex="1">
          <mxGeometry y="120" width="180" height="30" as="geometry" />
        </mxCell>
        <mxCell id="WlaR65cunMCcRaufkru7-180" value="" style="shape=partialRectangle;connectable=0;fillColor=none;top=0;left=0;bottom=0;right=0;editable=1;overflow=hidden;html=1;whiteSpace=wrap;" parent="WlaR65cunMCcRaufkru7-179" vertex="1">
          <mxGeometry width="36.549957275390625" height="30" as="geometry">
            <mxRectangle width="36.549957275390625" height="30" as="alternateBounds" />
          </mxGeometry>
        </mxCell>
        <mxCell id="WlaR65cunMCcRaufkru7-181" value="description" style="shape=partialRectangle;connectable=0;fillColor=none;top=0;left=0;bottom=0;right=0;align=left;spacingLeft=6;overflow=hidden;html=1;whiteSpace=wrap;" parent="WlaR65cunMCcRaufkru7-179" vertex="1">
          <mxGeometry x="36.549957275390625" width="143.45004272460938" height="30" as="geometry">
            <mxRectangle width="143.45004272460938" height="30" as="alternateBounds" />
          </mxGeometry>
        </mxCell>
        <mxCell id="WlaR65cunMCcRaufkru7-144" value="Admin" style="shape=table;startSize=30;container=1;collapsible=1;childLayout=tableLayout;fixedRows=1;rowLines=0;fontStyle=1;align=center;resizeLast=1;html=1;whiteSpace=wrap;" parent="1" vertex="1">
          <mxGeometry x="-769" y="973" width="180" height="156" as="geometry" />
        </mxCell>
        <mxCell id="WlaR65cunMCcRaufkru7-145" value="" style="shape=tableRow;horizontal=0;startSize=0;swimlaneHead=0;swimlaneBody=0;fillColor=none;collapsible=0;dropTarget=0;points=[[0,0.5],[1,0.5]];portConstraint=eastwest;top=0;left=0;right=0;bottom=0;html=1;" parent="WlaR65cunMCcRaufkru7-144" vertex="1">
          <mxGeometry y="30" width="180" height="30" as="geometry" />
        </mxCell>
        <mxCell id="WlaR65cunMCcRaufkru7-146" value="PK" style="shape=partialRectangle;connectable=0;fillColor=none;top=0;left=0;bottom=0;right=0;fontStyle=1;overflow=hidden;html=1;whiteSpace=wrap;" parent="WlaR65cunMCcRaufkru7-145" vertex="1">
          <mxGeometry width="36.549957275390625" height="30" as="geometry">
            <mxRectangle width="36.549957275390625" height="30" as="alternateBounds" />
          </mxGeometry>
        </mxCell>
        <mxCell id="WlaR65cunMCcRaufkru7-147" value="admin_id" style="shape=partialRectangle;connectable=0;fillColor=none;top=0;left=0;bottom=0;right=0;align=left;spacingLeft=6;fontStyle=5;overflow=hidden;html=1;whiteSpace=wrap;" parent="WlaR65cunMCcRaufkru7-145" vertex="1">
          <mxGeometry x="36.549957275390625" width="143.45004272460938" height="30" as="geometry">
            <mxRectangle width="143.45004272460938" height="30" as="alternateBounds" />
          </mxGeometry>
        </mxCell>
        <mxCell id="WlaR65cunMCcRaufkru7-148" value="" style="shape=tableRow;horizontal=0;startSize=0;swimlaneHead=0;swimlaneBody=0;fillColor=none;collapsible=0;dropTarget=0;points=[[0,0.5],[1,0.5]];portConstraint=eastwest;top=0;left=0;right=0;bottom=0;html=1;" parent="WlaR65cunMCcRaufkru7-144" vertex="1">
          <mxGeometry y="60" width="180" height="30" as="geometry" />
        </mxCell>
        <mxCell id="WlaR65cunMCcRaufkru7-149" value="" style="shape=partialRectangle;connectable=0;fillColor=none;top=0;left=0;bottom=0;right=0;editable=1;overflow=hidden;html=1;whiteSpace=wrap;" parent="WlaR65cunMCcRaufkru7-148" vertex="1">
          <mxGeometry width="36.549957275390625" height="30" as="geometry">
            <mxRectangle width="36.549957275390625" height="30" as="alternateBounds" />
          </mxGeometry>
        </mxCell>
        <mxCell id="WlaR65cunMCcRaufkru7-150" value="name" style="shape=partialRectangle;connectable=0;fillColor=none;top=0;left=0;bottom=0;right=0;align=left;spacingLeft=6;overflow=hidden;html=1;whiteSpace=wrap;" parent="WlaR65cunMCcRaufkru7-148" vertex="1">
          <mxGeometry x="36.549957275390625" width="143.45004272460938" height="30" as="geometry">
            <mxRectangle width="143.45004272460938" height="30" as="alternateBounds" />
          </mxGeometry>
        </mxCell>
        <mxCell id="WlaR65cunMCcRaufkru7-151" value="" style="shape=tableRow;horizontal=0;startSize=0;swimlaneHead=0;swimlaneBody=0;fillColor=none;collapsible=0;dropTarget=0;points=[[0,0.5],[1,0.5]];portConstraint=eastwest;top=0;left=0;right=0;bottom=0;html=1;" parent="WlaR65cunMCcRaufkru7-144" vertex="1">
          <mxGeometry y="90" width="180" height="36" as="geometry" />
        </mxCell>
        <mxCell id="WlaR65cunMCcRaufkru7-152" value="" style="shape=partialRectangle;connectable=0;fillColor=none;top=0;left=0;bottom=0;right=0;editable=1;overflow=hidden;html=1;whiteSpace=wrap;" parent="WlaR65cunMCcRaufkru7-151" vertex="1">
          <mxGeometry width="36.549957275390625" height="36" as="geometry">
            <mxRectangle width="36.549957275390625" height="36" as="alternateBounds" />
          </mxGeometry>
        </mxCell>
        <mxCell id="WlaR65cunMCcRaufkru7-153" value="email" style="shape=partialRectangle;connectable=0;fillColor=none;top=0;left=0;bottom=0;right=0;align=left;spacingLeft=6;overflow=hidden;html=1;whiteSpace=wrap;" parent="WlaR65cunMCcRaufkru7-151" vertex="1">
          <mxGeometry x="36.549957275390625" width="143.45004272460938" height="36" as="geometry">
            <mxRectangle width="143.45004272460938" height="36" as="alternateBounds" />
          </mxGeometry>
        </mxCell>
        <mxCell id="WlaR65cunMCcRaufkru7-154" value="" style="shape=tableRow;horizontal=0;startSize=0;swimlaneHead=0;swimlaneBody=0;fillColor=none;collapsible=0;dropTarget=0;points=[[0,0.5],[1,0.5]];portConstraint=eastwest;top=0;left=0;right=0;bottom=0;html=1;" parent="WlaR65cunMCcRaufkru7-144" vertex="1">
          <mxGeometry y="126" width="180" height="30" as="geometry" />
        </mxCell>
        <mxCell id="WlaR65cunMCcRaufkru7-155" value="" style="shape=partialRectangle;connectable=0;fillColor=none;top=0;left=0;bottom=0;right=0;editable=1;overflow=hidden;html=1;whiteSpace=wrap;" parent="WlaR65cunMCcRaufkru7-154" vertex="1">
          <mxGeometry width="36.549957275390625" height="30" as="geometry">
            <mxRectangle width="36.549957275390625" height="30" as="alternateBounds" />
          </mxGeometry>
        </mxCell>
        <mxCell id="WlaR65cunMCcRaufkru7-156" value="password" style="shape=partialRectangle;connectable=0;fillColor=none;top=0;left=0;bottom=0;right=0;align=left;spacingLeft=6;overflow=hidden;html=1;whiteSpace=wrap;" parent="WlaR65cunMCcRaufkru7-154" vertex="1">
          <mxGeometry x="36.549957275390625" width="143.45004272460938" height="30" as="geometry">
            <mxRectangle width="143.45004272460938" height="30" as="alternateBounds" />
          </mxGeometry>
        </mxCell>
        <mxCell id="WlaR65cunMCcRaufkru7-163" value="class_schedule" style="shape=table;startSize=30;container=1;collapsible=1;childLayout=tableLayout;fixedRows=1;rowLines=0;fontStyle=1;align=center;resizeLast=1;html=1;whiteSpace=wrap;" parent="1" vertex="1">
          <mxGeometry x="53" y="546" width="180" height="120" as="geometry" />
        </mxCell>
        <mxCell id="WlaR65cunMCcRaufkru7-164" value="" style="shape=tableRow;horizontal=0;startSize=0;swimlaneHead=0;swimlaneBody=0;fillColor=none;collapsible=0;dropTarget=0;points=[[0,0.5],[1,0.5]];portConstraint=eastwest;top=0;left=0;right=0;bottom=0;html=1;" parent="WlaR65cunMCcRaufkru7-163" vertex="1">
          <mxGeometry y="30" width="180" height="30" as="geometry" />
        </mxCell>
        <mxCell id="WlaR65cunMCcRaufkru7-165" value="PK" style="shape=partialRectangle;connectable=0;fillColor=none;top=0;left=0;bottom=0;right=0;fontStyle=1;overflow=hidden;html=1;whiteSpace=wrap;" parent="WlaR65cunMCcRaufkru7-164" vertex="1">
          <mxGeometry width="36.549957275390625" height="30" as="geometry">
            <mxRectangle width="36.549957275390625" height="30" as="alternateBounds" />
          </mxGeometry>
        </mxCell>
        <mxCell id="WlaR65cunMCcRaufkru7-166" value="schedule_id" style="shape=partialRectangle;connectable=0;fillColor=none;top=0;left=0;bottom=0;right=0;align=left;spacingLeft=6;fontStyle=5;overflow=hidden;html=1;whiteSpace=wrap;" parent="WlaR65cunMCcRaufkru7-164" vertex="1">
          <mxGeometry x="36.549957275390625" width="143.45004272460938" height="30" as="geometry">
            <mxRectangle width="143.45004272460938" height="30" as="alternateBounds" />
          </mxGeometry>
        </mxCell>
        <mxCell id="WlaR65cunMCcRaufkru7-347" value="" style="shape=tableRow;horizontal=0;startSize=0;swimlaneHead=0;swimlaneBody=0;fillColor=none;collapsible=0;dropTarget=0;points=[[0,0.5],[1,0.5]];portConstraint=eastwest;top=0;left=0;right=0;bottom=0;html=1;" parent="WlaR65cunMCcRaufkru7-163" vertex="1">
          <mxGeometry y="60" width="180" height="30" as="geometry" />
        </mxCell>
        <mxCell id="WlaR65cunMCcRaufkru7-348" value="FK" style="shape=partialRectangle;connectable=0;fillColor=none;top=0;left=0;bottom=0;right=0;editable=1;overflow=hidden;html=1;whiteSpace=wrap;" parent="WlaR65cunMCcRaufkru7-347" vertex="1">
          <mxGeometry width="36.549957275390625" height="30" as="geometry">
            <mxRectangle width="36.549957275390625" height="30" as="alternateBounds" />
          </mxGeometry>
        </mxCell>
        <mxCell id="WlaR65cunMCcRaufkru7-349" value="class_id" style="shape=partialRectangle;connectable=0;fillColor=none;top=0;left=0;bottom=0;right=0;align=left;spacingLeft=6;overflow=hidden;html=1;whiteSpace=wrap;" parent="WlaR65cunMCcRaufkru7-347" vertex="1">
          <mxGeometry x="36.549957275390625" width="143.45004272460938" height="30" as="geometry">
            <mxRectangle width="143.45004272460938" height="30" as="alternateBounds" />
          </mxGeometry>
        </mxCell>
        <mxCell id="WlaR65cunMCcRaufkru7-388" value="" style="shape=tableRow;horizontal=0;startSize=0;swimlaneHead=0;swimlaneBody=0;fillColor=none;collapsible=0;dropTarget=0;points=[[0,0.5],[1,0.5]];portConstraint=eastwest;top=0;left=0;right=0;bottom=0;html=1;" parent="WlaR65cunMCcRaufkru7-163" vertex="1">
          <mxGeometry y="90" width="180" height="30" as="geometry" />
        </mxCell>
        <mxCell id="WlaR65cunMCcRaufkru7-389" value="FK" style="shape=partialRectangle;connectable=0;fillColor=none;top=0;left=0;bottom=0;right=0;editable=1;overflow=hidden;html=1;whiteSpace=wrap;" parent="WlaR65cunMCcRaufkru7-388" vertex="1">
          <mxGeometry width="36.549957275390625" height="30" as="geometry">
            <mxRectangle width="36.549957275390625" height="30" as="alternateBounds" />
          </mxGeometry>
        </mxCell>
        <mxCell id="WlaR65cunMCcRaufkru7-390" value="room_booking_id" style="shape=partialRectangle;connectable=0;fillColor=none;top=0;left=0;bottom=0;right=0;align=left;spacingLeft=6;overflow=hidden;html=1;whiteSpace=wrap;" parent="WlaR65cunMCcRaufkru7-388" vertex="1">
          <mxGeometry x="36.549957275390625" width="143.45004272460938" height="30" as="geometry">
            <mxRectangle width="143.45004272460938" height="30" as="alternateBounds" />
          </mxGeometry>
        </mxCell>
        <mxCell id="WlaR65cunMCcRaufkru7-182" value="room_booking" style="shape=table;startSize=30;container=1;collapsible=1;childLayout=tableLayout;fixedRows=1;rowLines=0;fontStyle=1;align=center;resizeLast=1;html=1;whiteSpace=wrap;" parent="1" vertex="1">
          <mxGeometry x="355" y="561" width="180" height="180" as="geometry" />
        </mxCell>
        <mxCell id="WlaR65cunMCcRaufkru7-183" value="" style="shape=tableRow;horizontal=0;startSize=0;swimlaneHead=0;swimlaneBody=0;fillColor=none;collapsible=0;dropTarget=0;points=[[0,0.5],[1,0.5]];portConstraint=eastwest;top=0;left=0;right=0;bottom=0;html=1;" parent="WlaR65cunMCcRaufkru7-182" vertex="1">
          <mxGeometry y="30" width="180" height="30" as="geometry" />
        </mxCell>
        <mxCell id="WlaR65cunMCcRaufkru7-184" value="PK" style="shape=partialRectangle;connectable=0;fillColor=none;top=0;left=0;bottom=0;right=0;fontStyle=1;overflow=hidden;html=1;whiteSpace=wrap;" parent="WlaR65cunMCcRaufkru7-183" vertex="1">
          <mxGeometry width="36.549957275390625" height="30" as="geometry">
            <mxRectangle width="36.549957275390625" height="30" as="alternateBounds" />
          </mxGeometry>
        </mxCell>
        <mxCell id="WlaR65cunMCcRaufkru7-185" value="room_booking_id" style="shape=partialRectangle;connectable=0;fillColor=none;top=0;left=0;bottom=0;right=0;align=left;spacingLeft=6;fontStyle=5;overflow=hidden;html=1;whiteSpace=wrap;" parent="WlaR65cunMCcRaufkru7-183" vertex="1">
          <mxGeometry x="36.549957275390625" width="143.45004272460938" height="30" as="geometry">
            <mxRectangle width="143.45004272460938" height="30" as="alternateBounds" />
          </mxGeometry>
        </mxCell>
        <mxCell id="WlaR65cunMCcRaufkru7-376" value="" style="shape=tableRow;horizontal=0;startSize=0;swimlaneHead=0;swimlaneBody=0;fillColor=none;collapsible=0;dropTarget=0;points=[[0,0.5],[1,0.5]];portConstraint=eastwest;top=0;left=0;right=0;bottom=0;html=1;" parent="WlaR65cunMCcRaufkru7-182" vertex="1">
          <mxGeometry y="60" width="180" height="30" as="geometry" />
        </mxCell>
        <mxCell id="WlaR65cunMCcRaufkru7-377" value="FK" style="shape=partialRectangle;connectable=0;fillColor=none;top=0;left=0;bottom=0;right=0;editable=1;overflow=hidden;html=1;whiteSpace=wrap;" parent="WlaR65cunMCcRaufkru7-376" vertex="1">
          <mxGeometry width="36.549957275390625" height="30" as="geometry">
            <mxRectangle width="36.549957275390625" height="30" as="alternateBounds" />
          </mxGeometry>
        </mxCell>
        <mxCell id="WlaR65cunMCcRaufkru7-378" value="room_id" style="shape=partialRectangle;connectable=0;fillColor=none;top=0;left=0;bottom=0;right=0;align=left;spacingLeft=6;overflow=hidden;html=1;whiteSpace=wrap;" parent="WlaR65cunMCcRaufkru7-376" vertex="1">
          <mxGeometry x="36.549957275390625" width="143.45004272460938" height="30" as="geometry">
            <mxRectangle width="143.45004272460938" height="30" as="alternateBounds" />
          </mxGeometry>
        </mxCell>
        <mxCell id="WlaR65cunMCcRaufkru7-379" value="" style="shape=tableRow;horizontal=0;startSize=0;swimlaneHead=0;swimlaneBody=0;fillColor=none;collapsible=0;dropTarget=0;points=[[0,0.5],[1,0.5]];portConstraint=eastwest;top=0;left=0;right=0;bottom=0;html=1;" parent="WlaR65cunMCcRaufkru7-182" vertex="1">
          <mxGeometry y="90" width="180" height="30" as="geometry" />
        </mxCell>
        <mxCell id="WlaR65cunMCcRaufkru7-380" value="" style="shape=partialRectangle;connectable=0;fillColor=none;top=0;left=0;bottom=0;right=0;editable=1;overflow=hidden;html=1;whiteSpace=wrap;" parent="WlaR65cunMCcRaufkru7-379" vertex="1">
          <mxGeometry width="36.549957275390625" height="30" as="geometry">
            <mxRectangle width="36.549957275390625" height="30" as="alternateBounds" />
          </mxGeometry>
        </mxCell>
        <mxCell id="WlaR65cunMCcRaufkru7-381" value="date" style="shape=partialRectangle;connectable=0;fillColor=none;top=0;left=0;bottom=0;right=0;align=left;spacingLeft=6;overflow=hidden;html=1;whiteSpace=wrap;" parent="WlaR65cunMCcRaufkru7-379" vertex="1">
          <mxGeometry x="36.549957275390625" width="143.45004272460938" height="30" as="geometry">
            <mxRectangle width="143.45004272460938" height="30" as="alternateBounds" />
          </mxGeometry>
        </mxCell>
        <mxCell id="WlaR65cunMCcRaufkru7-382" value="" style="shape=tableRow;horizontal=0;startSize=0;swimlaneHead=0;swimlaneBody=0;fillColor=none;collapsible=0;dropTarget=0;points=[[0,0.5],[1,0.5]];portConstraint=eastwest;top=0;left=0;right=0;bottom=0;html=1;" parent="WlaR65cunMCcRaufkru7-182" vertex="1">
          <mxGeometry y="120" width="180" height="30" as="geometry" />
        </mxCell>
        <mxCell id="WlaR65cunMCcRaufkru7-383" value="" style="shape=partialRectangle;connectable=0;fillColor=none;top=0;left=0;bottom=0;right=0;editable=1;overflow=hidden;html=1;whiteSpace=wrap;" parent="WlaR65cunMCcRaufkru7-382" vertex="1">
          <mxGeometry width="36.549957275390625" height="30" as="geometry">
            <mxRectangle width="36.549957275390625" height="30" as="alternateBounds" />
          </mxGeometry>
        </mxCell>
        <mxCell id="WlaR65cunMCcRaufkru7-384" value="start_time" style="shape=partialRectangle;connectable=0;fillColor=none;top=0;left=0;bottom=0;right=0;align=left;spacingLeft=6;overflow=hidden;html=1;whiteSpace=wrap;" parent="WlaR65cunMCcRaufkru7-382" vertex="1">
          <mxGeometry x="36.549957275390625" width="143.45004272460938" height="30" as="geometry">
            <mxRectangle width="143.45004272460938" height="30" as="alternateBounds" />
          </mxGeometry>
        </mxCell>
        <mxCell id="WlaR65cunMCcRaufkru7-385" value="" style="shape=tableRow;horizontal=0;startSize=0;swimlaneHead=0;swimlaneBody=0;fillColor=none;collapsible=0;dropTarget=0;points=[[0,0.5],[1,0.5]];portConstraint=eastwest;top=0;left=0;right=0;bottom=0;html=1;" parent="WlaR65cunMCcRaufkru7-182" vertex="1">
          <mxGeometry y="150" width="180" height="30" as="geometry" />
        </mxCell>
        <mxCell id="WlaR65cunMCcRaufkru7-386" value="" style="shape=partialRectangle;connectable=0;fillColor=none;top=0;left=0;bottom=0;right=0;editable=1;overflow=hidden;html=1;whiteSpace=wrap;" parent="WlaR65cunMCcRaufkru7-385" vertex="1">
          <mxGeometry width="36.549957275390625" height="30" as="geometry">
            <mxRectangle width="36.549957275390625" height="30" as="alternateBounds" />
          </mxGeometry>
        </mxCell>
        <mxCell id="WlaR65cunMCcRaufkru7-387" value="end_time" style="shape=partialRectangle;connectable=0;fillColor=none;top=0;left=0;bottom=0;right=0;align=left;spacingLeft=6;overflow=hidden;html=1;whiteSpace=wrap;" parent="WlaR65cunMCcRaufkru7-385" vertex="1">
          <mxGeometry x="36.549957275390625" width="143.45004272460938" height="30" as="geometry">
            <mxRectangle width="143.45004272460938" height="30" as="alternateBounds" />
          </mxGeometry>
        </mxCell>
        <mxCell id="WlaR65cunMCcRaufkru7-217" value="health_metric" style="shape=table;startSize=30;container=1;collapsible=1;childLayout=tableLayout;fixedRows=1;rowLines=0;fontStyle=1;align=center;resizeLast=1;html=1;" parent="1" vertex="1">
          <mxGeometry x="-572" y="-117" width="180" height="120" as="geometry" />
        </mxCell>
        <mxCell id="WlaR65cunMCcRaufkru7-218" value="" style="shape=tableRow;horizontal=0;startSize=0;swimlaneHead=0;swimlaneBody=0;fillColor=none;collapsible=0;dropTarget=0;points=[[0,0.5],[1,0.5]];portConstraint=eastwest;top=0;left=0;right=0;bottom=1;" parent="WlaR65cunMCcRaufkru7-217" vertex="1">
          <mxGeometry y="30" width="180" height="30" as="geometry" />
        </mxCell>
        <mxCell id="WlaR65cunMCcRaufkru7-219" value="PK" style="shape=partialRectangle;connectable=0;fillColor=none;top=0;left=0;bottom=0;right=0;fontStyle=1;overflow=hidden;whiteSpace=wrap;html=1;" parent="WlaR65cunMCcRaufkru7-218" vertex="1">
          <mxGeometry width="30" height="30" as="geometry">
            <mxRectangle width="30" height="30" as="alternateBounds" />
          </mxGeometry>
        </mxCell>
        <mxCell id="WlaR65cunMCcRaufkru7-220" value="health_metric_id" style="shape=partialRectangle;connectable=0;fillColor=none;top=0;left=0;bottom=0;right=0;align=left;spacingLeft=6;fontStyle=5;overflow=hidden;whiteSpace=wrap;html=1;" parent="WlaR65cunMCcRaufkru7-218" vertex="1">
          <mxGeometry x="30" width="150" height="30" as="geometry">
            <mxRectangle width="150" height="30" as="alternateBounds" />
          </mxGeometry>
        </mxCell>
        <mxCell id="WlaR65cunMCcRaufkru7-221" value="" style="shape=tableRow;horizontal=0;startSize=0;swimlaneHead=0;swimlaneBody=0;fillColor=none;collapsible=0;dropTarget=0;points=[[0,0.5],[1,0.5]];portConstraint=eastwest;top=0;left=0;right=0;bottom=0;" parent="WlaR65cunMCcRaufkru7-217" vertex="1">
          <mxGeometry y="60" width="180" height="30" as="geometry" />
        </mxCell>
        <mxCell id="WlaR65cunMCcRaufkru7-222" value="" style="shape=partialRectangle;connectable=0;fillColor=none;top=0;left=0;bottom=0;right=0;editable=1;overflow=hidden;whiteSpace=wrap;html=1;" parent="WlaR65cunMCcRaufkru7-221" vertex="1">
          <mxGeometry width="30" height="30" as="geometry">
            <mxRectangle width="30" height="30" as="alternateBounds" />
          </mxGeometry>
        </mxCell>
        <mxCell id="WlaR65cunMCcRaufkru7-223" value="name" style="shape=partialRectangle;connectable=0;fillColor=none;top=0;left=0;bottom=0;right=0;align=left;spacingLeft=6;overflow=hidden;whiteSpace=wrap;html=1;" parent="WlaR65cunMCcRaufkru7-221" vertex="1">
          <mxGeometry x="30" width="150" height="30" as="geometry">
            <mxRectangle width="150" height="30" as="alternateBounds" />
          </mxGeometry>
        </mxCell>
        <mxCell id="S6X1GqOM9BgGaifDFKJ5-1" value="" style="shape=tableRow;horizontal=0;startSize=0;swimlaneHead=0;swimlaneBody=0;fillColor=none;collapsible=0;dropTarget=0;points=[[0,0.5],[1,0.5]];portConstraint=eastwest;top=0;left=0;right=0;bottom=0;" parent="WlaR65cunMCcRaufkru7-217" vertex="1">
          <mxGeometry y="90" width="180" height="30" as="geometry" />
        </mxCell>
        <mxCell id="S6X1GqOM9BgGaifDFKJ5-2" value="" style="shape=partialRectangle;connectable=0;fillColor=none;top=0;left=0;bottom=0;right=0;editable=1;overflow=hidden;whiteSpace=wrap;html=1;" parent="S6X1GqOM9BgGaifDFKJ5-1" vertex="1">
          <mxGeometry width="30" height="30" as="geometry">
            <mxRectangle width="30" height="30" as="alternateBounds" />
          </mxGeometry>
        </mxCell>
        <mxCell id="S6X1GqOM9BgGaifDFKJ5-3" value="description" style="shape=partialRectangle;connectable=0;fillColor=none;top=0;left=0;bottom=0;right=0;align=left;spacingLeft=6;overflow=hidden;whiteSpace=wrap;html=1;" parent="S6X1GqOM9BgGaifDFKJ5-1" vertex="1">
          <mxGeometry x="30" width="150" height="30" as="geometry">
            <mxRectangle width="150" height="30" as="alternateBounds" />
          </mxGeometry>
        </mxCell>
        <mxCell id="WlaR65cunMCcRaufkru7-233" value="" style="endArrow=none;html=1;rounded=0;dashed=0;dashPattern=1 2;exitX=0;exitY=0.5;exitDx=0;exitDy=0;entryX=0;entryY=0.5;entryDx=0;entryDy=0;edgeStyle=orthogonalEdgeStyle;" parent="1" source="WlaR65cunMCcRaufkru7-221" target="WlaR65cunMCcRaufkru7-65" edge="1">
          <mxGeometry relative="1" as="geometry">
            <mxPoint x="-225" y="107" as="sourcePoint" />
            <mxPoint x="-65" y="107" as="targetPoint" />
            <Array as="points">
              <mxPoint x="-608" y="-42" />
              <mxPoint x="-608" y="144" />
            </Array>
          </mxGeometry>
        </mxCell>
        <mxCell id="WlaR65cunMCcRaufkru7-234" value="N" style="resizable=0;html=1;whiteSpace=wrap;align=right;verticalAlign=bottom;" parent="WlaR65cunMCcRaufkru7-233" connectable="0" vertex="1">
          <mxGeometry x="1" relative="1" as="geometry" />
        </mxCell>
        <mxCell id="WlaR65cunMCcRaufkru7-247" value="member_goal" style="shape=table;startSize=30;container=1;collapsible=1;childLayout=tableLayout;fixedRows=1;rowLines=0;fontStyle=1;align=center;resizeLast=1;html=1;whiteSpace=wrap;" parent="1" vertex="1">
          <mxGeometry x="-877" y="47" width="180" height="222" as="geometry" />
        </mxCell>
        <mxCell id="WlaR65cunMCcRaufkru7-248" value="" style="shape=tableRow;horizontal=0;startSize=0;swimlaneHead=0;swimlaneBody=0;fillColor=none;collapsible=0;dropTarget=0;points=[[0,0.5],[1,0.5]];portConstraint=eastwest;top=0;left=0;right=0;bottom=0;html=1;" parent="WlaR65cunMCcRaufkru7-247" vertex="1">
          <mxGeometry y="30" width="180" height="30" as="geometry" />
        </mxCell>
        <mxCell id="WlaR65cunMCcRaufkru7-249" value="" style="shape=partialRectangle;connectable=0;fillColor=none;top=0;left=0;bottom=0;right=0;fontStyle=1;overflow=hidden;html=1;whiteSpace=wrap;" parent="WlaR65cunMCcRaufkru7-248" vertex="1">
          <mxGeometry width="36.549957275390625" height="30" as="geometry">
            <mxRectangle width="36.549957275390625" height="30" as="alternateBounds" />
          </mxGeometry>
        </mxCell>
        <mxCell id="WlaR65cunMCcRaufkru7-250" value="" style="shape=partialRectangle;connectable=0;fillColor=none;top=0;left=0;bottom=0;right=0;align=left;spacingLeft=6;fontStyle=5;overflow=hidden;html=1;whiteSpace=wrap;" parent="WlaR65cunMCcRaufkru7-248" vertex="1">
          <mxGeometry x="36.549957275390625" width="143.45004272460938" height="30" as="geometry">
            <mxRectangle width="143.45004272460938" height="30" as="alternateBounds" />
          </mxGeometry>
        </mxCell>
        <mxCell id="WlaR65cunMCcRaufkru7-306" value="" style="shape=tableRow;horizontal=0;startSize=0;swimlaneHead=0;swimlaneBody=0;fillColor=none;collapsible=0;dropTarget=0;points=[[0,0.5],[1,0.5]];portConstraint=eastwest;top=0;left=0;right=0;bottom=0;html=1;" parent="WlaR65cunMCcRaufkru7-247" vertex="1">
          <mxGeometry y="60" width="180" height="30" as="geometry" />
        </mxCell>
        <mxCell id="WlaR65cunMCcRaufkru7-307" value="&lt;b&gt;FK&lt;/b&gt;" style="shape=partialRectangle;connectable=0;fillColor=none;top=0;left=0;bottom=0;right=0;editable=1;overflow=hidden;html=1;whiteSpace=wrap;" parent="WlaR65cunMCcRaufkru7-306" vertex="1">
          <mxGeometry width="36.549957275390625" height="30" as="geometry">
            <mxRectangle width="36.549957275390625" height="30" as="alternateBounds" />
          </mxGeometry>
        </mxCell>
        <mxCell id="WlaR65cunMCcRaufkru7-308" value="&lt;u&gt;&lt;b&gt;member_id&lt;/b&gt;&lt;/u&gt;" style="shape=partialRectangle;connectable=0;fillColor=none;top=0;left=0;bottom=0;right=0;align=left;spacingLeft=6;overflow=hidden;html=1;whiteSpace=wrap;" parent="WlaR65cunMCcRaufkru7-306" vertex="1">
          <mxGeometry x="36.549957275390625" width="143.45004272460938" height="30" as="geometry">
            <mxRectangle width="143.45004272460938" height="30" as="alternateBounds" />
          </mxGeometry>
        </mxCell>
        <mxCell id="WlaR65cunMCcRaufkru7-295" value="" style="shape=tableRow;horizontal=0;startSize=0;swimlaneHead=0;swimlaneBody=0;fillColor=none;collapsible=0;dropTarget=0;points=[[0,0.5],[1,0.5]];portConstraint=eastwest;top=0;left=0;right=0;bottom=0;html=1;" parent="WlaR65cunMCcRaufkru7-247" vertex="1">
          <mxGeometry y="90" width="180" height="30" as="geometry" />
        </mxCell>
        <mxCell id="WlaR65cunMCcRaufkru7-296" value="&lt;b&gt;FK&lt;/b&gt;" style="shape=partialRectangle;connectable=0;fillColor=none;top=0;left=0;bottom=0;right=0;editable=1;overflow=hidden;html=1;whiteSpace=wrap;" parent="WlaR65cunMCcRaufkru7-295" vertex="1">
          <mxGeometry width="36.549957275390625" height="30" as="geometry">
            <mxRectangle width="36.549957275390625" height="30" as="alternateBounds" />
          </mxGeometry>
        </mxCell>
        <mxCell id="WlaR65cunMCcRaufkru7-297" value="&lt;u&gt;&lt;b&gt;fitness_goal_id&lt;/b&gt;&lt;/u&gt;" style="shape=partialRectangle;connectable=0;fillColor=none;top=0;left=0;bottom=0;right=0;align=left;spacingLeft=6;overflow=hidden;html=1;whiteSpace=wrap;" parent="WlaR65cunMCcRaufkru7-295" vertex="1">
          <mxGeometry x="36.549957275390625" width="143.45004272460938" height="30" as="geometry">
            <mxRectangle width="143.45004272460938" height="30" as="alternateBounds" />
          </mxGeometry>
        </mxCell>
        <mxCell id="WlaR65cunMCcRaufkru7-301" value="" style="shape=tableRow;horizontal=0;startSize=0;swimlaneHead=0;swimlaneBody=0;fillColor=none;collapsible=0;dropTarget=0;points=[[0,0.5],[1,0.5]];portConstraint=eastwest;top=0;left=0;right=0;bottom=0;html=1;" parent="WlaR65cunMCcRaufkru7-247" vertex="1">
          <mxGeometry y="120" width="180" height="36" as="geometry" />
        </mxCell>
        <mxCell id="WlaR65cunMCcRaufkru7-302" value="" style="shape=partialRectangle;connectable=0;fillColor=none;top=0;left=0;bottom=0;right=0;editable=1;overflow=hidden;html=1;whiteSpace=wrap;" parent="WlaR65cunMCcRaufkru7-301" vertex="1">
          <mxGeometry width="36.549957275390625" height="36" as="geometry">
            <mxRectangle width="36.549957275390625" height="36" as="alternateBounds" />
          </mxGeometry>
        </mxCell>
        <mxCell id="WlaR65cunMCcRaufkru7-303" value="current_value" style="shape=partialRectangle;connectable=0;fillColor=none;top=0;left=0;bottom=0;right=0;align=left;spacingLeft=6;overflow=hidden;html=1;whiteSpace=wrap;" parent="WlaR65cunMCcRaufkru7-301" vertex="1">
          <mxGeometry x="36.549957275390625" width="143.45004272460938" height="36" as="geometry">
            <mxRectangle width="143.45004272460938" height="36" as="alternateBounds" />
          </mxGeometry>
        </mxCell>
        <mxCell id="WlaR65cunMCcRaufkru7-257" value="" style="shape=tableRow;horizontal=0;startSize=0;swimlaneHead=0;swimlaneBody=0;fillColor=none;collapsible=0;dropTarget=0;points=[[0,0.5],[1,0.5]];portConstraint=eastwest;top=0;left=0;right=0;bottom=0;html=1;" parent="WlaR65cunMCcRaufkru7-247" vertex="1">
          <mxGeometry y="156" width="180" height="36" as="geometry" />
        </mxCell>
        <mxCell id="WlaR65cunMCcRaufkru7-258" value="" style="shape=partialRectangle;connectable=0;fillColor=none;top=0;left=0;bottom=0;right=0;editable=1;overflow=hidden;html=1;whiteSpace=wrap;" parent="WlaR65cunMCcRaufkru7-257" vertex="1">
          <mxGeometry width="36.549957275390625" height="36" as="geometry">
            <mxRectangle width="36.549957275390625" height="36" as="alternateBounds" />
          </mxGeometry>
        </mxCell>
        <mxCell id="WlaR65cunMCcRaufkru7-259" value="goal_value" style="shape=partialRectangle;connectable=0;fillColor=none;top=0;left=0;bottom=0;right=0;align=left;spacingLeft=6;overflow=hidden;html=1;whiteSpace=wrap;" parent="WlaR65cunMCcRaufkru7-257" vertex="1">
          <mxGeometry x="36.549957275390625" width="143.45004272460938" height="36" as="geometry">
            <mxRectangle width="143.45004272460938" height="36" as="alternateBounds" />
          </mxGeometry>
        </mxCell>
        <mxCell id="WlaR65cunMCcRaufkru7-260" value="" style="shape=tableRow;horizontal=0;startSize=0;swimlaneHead=0;swimlaneBody=0;fillColor=none;collapsible=0;dropTarget=0;points=[[0,0.5],[1,0.5]];portConstraint=eastwest;top=0;left=0;right=0;bottom=0;html=1;" parent="WlaR65cunMCcRaufkru7-247" vertex="1">
          <mxGeometry y="192" width="180" height="30" as="geometry" />
        </mxCell>
        <mxCell id="WlaR65cunMCcRaufkru7-261" value="" style="shape=partialRectangle;connectable=0;fillColor=none;top=0;left=0;bottom=0;right=0;editable=1;overflow=hidden;html=1;whiteSpace=wrap;" parent="WlaR65cunMCcRaufkru7-260" vertex="1">
          <mxGeometry width="36.549957275390625" height="30" as="geometry">
            <mxRectangle width="36.549957275390625" height="30" as="alternateBounds" />
          </mxGeometry>
        </mxCell>
        <mxCell id="WlaR65cunMCcRaufkru7-262" value="last_updated" style="shape=partialRectangle;connectable=0;fillColor=none;top=0;left=0;bottom=0;right=0;align=left;spacingLeft=6;overflow=hidden;html=1;whiteSpace=wrap;" parent="WlaR65cunMCcRaufkru7-260" vertex="1">
          <mxGeometry x="36.549957275390625" width="143.45004272460938" height="30" as="geometry">
            <mxRectangle width="143.45004272460938" height="30" as="alternateBounds" />
          </mxGeometry>
        </mxCell>
        <mxCell id="WlaR65cunMCcRaufkru7-263" value="fitness_goal" style="shape=table;startSize=30;container=1;collapsible=1;childLayout=tableLayout;fixedRows=1;rowLines=0;fontStyle=1;align=center;resizeLast=1;html=1;" parent="1" vertex="1">
          <mxGeometry x="-877" y="-109" width="180" height="120" as="geometry" />
        </mxCell>
        <mxCell id="WlaR65cunMCcRaufkru7-264" value="" style="shape=tableRow;horizontal=0;startSize=0;swimlaneHead=0;swimlaneBody=0;fillColor=none;collapsible=0;dropTarget=0;points=[[0,0.5],[1,0.5]];portConstraint=eastwest;top=0;left=0;right=0;bottom=1;" parent="WlaR65cunMCcRaufkru7-263" vertex="1">
          <mxGeometry y="30" width="180" height="30" as="geometry" />
        </mxCell>
        <mxCell id="WlaR65cunMCcRaufkru7-265" value="PK" style="shape=partialRectangle;connectable=0;fillColor=none;top=0;left=0;bottom=0;right=0;fontStyle=1;overflow=hidden;whiteSpace=wrap;html=1;" parent="WlaR65cunMCcRaufkru7-264" vertex="1">
          <mxGeometry width="30" height="30" as="geometry">
            <mxRectangle width="30" height="30" as="alternateBounds" />
          </mxGeometry>
        </mxCell>
        <mxCell id="WlaR65cunMCcRaufkru7-266" value="fitness_goal_id" style="shape=partialRectangle;connectable=0;fillColor=none;top=0;left=0;bottom=0;right=0;align=left;spacingLeft=6;fontStyle=5;overflow=hidden;whiteSpace=wrap;html=1;" parent="WlaR65cunMCcRaufkru7-264" vertex="1">
          <mxGeometry x="30" width="150" height="30" as="geometry">
            <mxRectangle width="150" height="30" as="alternateBounds" />
          </mxGeometry>
        </mxCell>
        <mxCell id="WlaR65cunMCcRaufkru7-267" value="" style="shape=tableRow;horizontal=0;startSize=0;swimlaneHead=0;swimlaneBody=0;fillColor=none;collapsible=0;dropTarget=0;points=[[0,0.5],[1,0.5]];portConstraint=eastwest;top=0;left=0;right=0;bottom=0;" parent="WlaR65cunMCcRaufkru7-263" vertex="1">
          <mxGeometry y="60" width="180" height="30" as="geometry" />
        </mxCell>
        <mxCell id="WlaR65cunMCcRaufkru7-268" value="" style="shape=partialRectangle;connectable=0;fillColor=none;top=0;left=0;bottom=0;right=0;editable=1;overflow=hidden;whiteSpace=wrap;html=1;" parent="WlaR65cunMCcRaufkru7-267" vertex="1">
          <mxGeometry width="30" height="30" as="geometry">
            <mxRectangle width="30" height="30" as="alternateBounds" />
          </mxGeometry>
        </mxCell>
        <mxCell id="WlaR65cunMCcRaufkru7-269" value="name" style="shape=partialRectangle;connectable=0;fillColor=none;top=0;left=0;bottom=0;right=0;align=left;spacingLeft=6;overflow=hidden;whiteSpace=wrap;html=1;" parent="WlaR65cunMCcRaufkru7-267" vertex="1">
          <mxGeometry x="30" width="150" height="30" as="geometry">
            <mxRectangle width="150" height="30" as="alternateBounds" />
          </mxGeometry>
        </mxCell>
        <mxCell id="ACXJi1MiJ7MaT-p83g4J-4" value="" style="shape=tableRow;horizontal=0;startSize=0;swimlaneHead=0;swimlaneBody=0;fillColor=none;collapsible=0;dropTarget=0;points=[[0,0.5],[1,0.5]];portConstraint=eastwest;top=0;left=0;right=0;bottom=0;" parent="WlaR65cunMCcRaufkru7-263" vertex="1">
          <mxGeometry y="90" width="180" height="30" as="geometry" />
        </mxCell>
        <mxCell id="ACXJi1MiJ7MaT-p83g4J-5" value="" style="shape=partialRectangle;connectable=0;fillColor=none;top=0;left=0;bottom=0;right=0;editable=1;overflow=hidden;whiteSpace=wrap;html=1;" parent="ACXJi1MiJ7MaT-p83g4J-4" vertex="1">
          <mxGeometry width="30" height="30" as="geometry">
            <mxRectangle width="30" height="30" as="alternateBounds" />
          </mxGeometry>
        </mxCell>
        <mxCell id="ACXJi1MiJ7MaT-p83g4J-6" value="description" style="shape=partialRectangle;connectable=0;fillColor=none;top=0;left=0;bottom=0;right=0;align=left;spacingLeft=6;overflow=hidden;whiteSpace=wrap;html=1;" parent="ACXJi1MiJ7MaT-p83g4J-4" vertex="1">
          <mxGeometry x="30" width="150" height="30" as="geometry">
            <mxRectangle width="150" height="30" as="alternateBounds" />
          </mxGeometry>
        </mxCell>
        <mxCell id="WlaR65cunMCcRaufkru7-304" value="" style="endArrow=none;html=1;rounded=0;dashed=0;dashPattern=1 2;exitX=0;exitY=0.5;exitDx=0;exitDy=0;entryX=0;entryY=0.5;entryDx=0;entryDy=0;edgeStyle=orthogonalEdgeStyle;" parent="1" edge="1">
          <mxGeometry relative="1" as="geometry">
            <mxPoint x="-877" y="-64" as="sourcePoint" />
            <mxPoint x="-877" y="122" as="targetPoint" />
            <Array as="points">
              <mxPoint x="-913" y="-64" />
              <mxPoint x="-913" y="151" />
              <mxPoint x="-877" y="151" />
            </Array>
          </mxGeometry>
        </mxCell>
        <mxCell id="WlaR65cunMCcRaufkru7-305" value="N" style="resizable=0;html=1;whiteSpace=wrap;align=right;verticalAlign=bottom;" parent="WlaR65cunMCcRaufkru7-304" connectable="0" vertex="1">
          <mxGeometry x="1" relative="1" as="geometry">
            <mxPoint y="30" as="offset" />
          </mxGeometry>
        </mxCell>
        <mxCell id="WlaR65cunMCcRaufkru7-331" value="fintess_class_member" style="shape=table;startSize=30;container=1;collapsible=1;childLayout=tableLayout;fixedRows=1;rowLines=0;fontStyle=1;align=center;resizeLast=1;html=1;whiteSpace=wrap;" parent="1" vertex="1">
          <mxGeometry x="-560" y="538" width="180" height="90" as="geometry" />
        </mxCell>
        <mxCell id="WlaR65cunMCcRaufkru7-332" value="" style="shape=tableRow;horizontal=0;startSize=0;swimlaneHead=0;swimlaneBody=0;fillColor=none;collapsible=0;dropTarget=0;points=[[0,0.5],[1,0.5]];portConstraint=eastwest;top=0;left=0;right=0;bottom=0;html=1;" parent="WlaR65cunMCcRaufkru7-331" vertex="1">
          <mxGeometry y="30" width="180" height="30" as="geometry" />
        </mxCell>
        <mxCell id="WlaR65cunMCcRaufkru7-333" value="FK" style="shape=partialRectangle;connectable=0;fillColor=none;top=0;left=0;bottom=0;right=0;fontStyle=1;overflow=hidden;html=1;whiteSpace=wrap;" parent="WlaR65cunMCcRaufkru7-332" vertex="1">
          <mxGeometry width="36.549957275390625" height="30" as="geometry">
            <mxRectangle width="36.549957275390625" height="30" as="alternateBounds" />
          </mxGeometry>
        </mxCell>
        <mxCell id="WlaR65cunMCcRaufkru7-334" value="schedule_id" style="shape=partialRectangle;connectable=0;fillColor=none;top=0;left=0;bottom=0;right=0;align=left;spacingLeft=6;fontStyle=5;overflow=hidden;html=1;whiteSpace=wrap;" parent="WlaR65cunMCcRaufkru7-332" vertex="1">
          <mxGeometry x="36.549957275390625" width="143.45004272460938" height="30" as="geometry">
            <mxRectangle width="143.45004272460938" height="30" as="alternateBounds" />
          </mxGeometry>
        </mxCell>
        <mxCell id="WlaR65cunMCcRaufkru7-335" value="" style="shape=tableRow;horizontal=0;startSize=0;swimlaneHead=0;swimlaneBody=0;fillColor=none;collapsible=0;dropTarget=0;points=[[0,0.5],[1,0.5]];portConstraint=eastwest;top=0;left=0;right=0;bottom=0;html=1;" parent="WlaR65cunMCcRaufkru7-331" vertex="1">
          <mxGeometry y="60" width="180" height="30" as="geometry" />
        </mxCell>
        <mxCell id="WlaR65cunMCcRaufkru7-336" value="&lt;b&gt;FK&lt;/b&gt;" style="shape=partialRectangle;connectable=0;fillColor=none;top=0;left=0;bottom=0;right=0;editable=1;overflow=hidden;html=1;whiteSpace=wrap;" parent="WlaR65cunMCcRaufkru7-335" vertex="1">
          <mxGeometry width="36.549957275390625" height="30" as="geometry">
            <mxRectangle width="36.549957275390625" height="30" as="alternateBounds" />
          </mxGeometry>
        </mxCell>
        <mxCell id="WlaR65cunMCcRaufkru7-337" value="&lt;b&gt;&lt;u&gt;member_id&lt;/u&gt;&lt;/b&gt;" style="shape=partialRectangle;connectable=0;fillColor=none;top=0;left=0;bottom=0;right=0;align=left;spacingLeft=6;overflow=hidden;html=1;whiteSpace=wrap;" parent="WlaR65cunMCcRaufkru7-335" vertex="1">
          <mxGeometry x="36.549957275390625" width="143.45004272460938" height="30" as="geometry">
            <mxRectangle width="143.45004272460938" height="30" as="alternateBounds" />
          </mxGeometry>
        </mxCell>
        <mxCell id="WlaR65cunMCcRaufkru7-359" value="join table: M:N relationship&lt;br&gt;&amp;nbsp;for fitness classes&lt;br&gt;and members" style="ellipse;shape=cloud;whiteSpace=wrap;html=1;align=center;" parent="1" vertex="1">
          <mxGeometry x="-589" y="628" width="139" height="129" as="geometry" />
        </mxCell>
        <mxCell id="WlaR65cunMCcRaufkru7-360" value="room" style="shape=table;startSize=30;container=1;collapsible=1;childLayout=tableLayout;fixedRows=1;rowLines=0;fontStyle=1;align=center;resizeLast=1;html=1;whiteSpace=wrap;" parent="1" vertex="1">
          <mxGeometry x="637" y="546" width="180" height="126" as="geometry" />
        </mxCell>
        <mxCell id="WlaR65cunMCcRaufkru7-361" value="" style="shape=tableRow;horizontal=0;startSize=0;swimlaneHead=0;swimlaneBody=0;fillColor=none;collapsible=0;dropTarget=0;points=[[0,0.5],[1,0.5]];portConstraint=eastwest;top=0;left=0;right=0;bottom=0;html=1;" parent="WlaR65cunMCcRaufkru7-360" vertex="1">
          <mxGeometry y="30" width="180" height="30" as="geometry" />
        </mxCell>
        <mxCell id="WlaR65cunMCcRaufkru7-362" value="PK" style="shape=partialRectangle;connectable=0;fillColor=none;top=0;left=0;bottom=0;right=0;fontStyle=1;overflow=hidden;html=1;whiteSpace=wrap;" parent="WlaR65cunMCcRaufkru7-361" vertex="1">
          <mxGeometry width="36.549957275390625" height="30" as="geometry">
            <mxRectangle width="36.549957275390625" height="30" as="alternateBounds" />
          </mxGeometry>
        </mxCell>
        <mxCell id="WlaR65cunMCcRaufkru7-363" value="room_id" style="shape=partialRectangle;connectable=0;fillColor=none;top=0;left=0;bottom=0;right=0;align=left;spacingLeft=6;fontStyle=5;overflow=hidden;html=1;whiteSpace=wrap;" parent="WlaR65cunMCcRaufkru7-361" vertex="1">
          <mxGeometry x="36.549957275390625" width="143.45004272460938" height="30" as="geometry">
            <mxRectangle width="143.45004272460938" height="30" as="alternateBounds" />
          </mxGeometry>
        </mxCell>
        <mxCell id="WlaR65cunMCcRaufkru7-370" value="" style="shape=tableRow;horizontal=0;startSize=0;swimlaneHead=0;swimlaneBody=0;fillColor=none;collapsible=0;dropTarget=0;points=[[0,0.5],[1,0.5]];portConstraint=eastwest;top=0;left=0;right=0;bottom=0;html=1;" parent="WlaR65cunMCcRaufkru7-360" vertex="1">
          <mxGeometry y="60" width="180" height="36" as="geometry" />
        </mxCell>
        <mxCell id="WlaR65cunMCcRaufkru7-371" value="" style="shape=partialRectangle;connectable=0;fillColor=none;top=0;left=0;bottom=0;right=0;editable=1;overflow=hidden;html=1;whiteSpace=wrap;" parent="WlaR65cunMCcRaufkru7-370" vertex="1">
          <mxGeometry width="36.549957275390625" height="36" as="geometry">
            <mxRectangle width="36.549957275390625" height="36" as="alternateBounds" />
          </mxGeometry>
        </mxCell>
        <mxCell id="WlaR65cunMCcRaufkru7-372" value="name" style="shape=partialRectangle;connectable=0;fillColor=none;top=0;left=0;bottom=0;right=0;align=left;spacingLeft=6;overflow=hidden;html=1;whiteSpace=wrap;" parent="WlaR65cunMCcRaufkru7-370" vertex="1">
          <mxGeometry x="36.549957275390625" width="143.45004272460938" height="36" as="geometry">
            <mxRectangle width="143.45004272460938" height="36" as="alternateBounds" />
          </mxGeometry>
        </mxCell>
        <mxCell id="WlaR65cunMCcRaufkru7-373" value="" style="shape=tableRow;horizontal=0;startSize=0;swimlaneHead=0;swimlaneBody=0;fillColor=none;collapsible=0;dropTarget=0;points=[[0,0.5],[1,0.5]];portConstraint=eastwest;top=0;left=0;right=0;bottom=0;html=1;" parent="WlaR65cunMCcRaufkru7-360" vertex="1">
          <mxGeometry y="96" width="180" height="30" as="geometry" />
        </mxCell>
        <mxCell id="WlaR65cunMCcRaufkru7-374" value="" style="shape=partialRectangle;connectable=0;fillColor=none;top=0;left=0;bottom=0;right=0;editable=1;overflow=hidden;html=1;whiteSpace=wrap;" parent="WlaR65cunMCcRaufkru7-373" vertex="1">
          <mxGeometry width="36.549957275390625" height="30" as="geometry">
            <mxRectangle width="36.549957275390625" height="30" as="alternateBounds" />
          </mxGeometry>
        </mxCell>
        <mxCell id="WlaR65cunMCcRaufkru7-375" value="description" style="shape=partialRectangle;connectable=0;fillColor=none;top=0;left=0;bottom=0;right=0;align=left;spacingLeft=6;overflow=hidden;html=1;whiteSpace=wrap;" parent="WlaR65cunMCcRaufkru7-373" vertex="1">
          <mxGeometry x="36.549957275390625" width="143.45004272460938" height="30" as="geometry">
            <mxRectangle width="143.45004272460938" height="30" as="alternateBounds" />
          </mxGeometry>
        </mxCell>
        <mxCell id="WlaR65cunMCcRaufkru7-392" value="class schedule has a date time and so does room booking.&lt;br style=&quot;border-color: var(--border-color);&quot;&gt;This way, when you want to change the class schedule, you can reference the room booking to see if the room_id has a free slot in the room booking table, then update the class schedule; else throw an error that the class must be booked in a different room or the time must change." style="whiteSpace=wrap;html=1;align=center;" parent="1" vertex="1">
          <mxGeometry x="77" y="793" width="524" height="131" as="geometry" />
        </mxCell>
        <mxCell id="WlaR65cunMCcRaufkru7-395" value="" style="endArrow=none;html=1;rounded=0;dashed=0;dashPattern=1 2;exitX=0;exitY=0.5;exitDx=0;exitDy=0;entryX=1;entryY=0.5;entryDx=0;entryDy=0;edgeStyle=orthogonalEdgeStyle;" parent="1" source="WlaR65cunMCcRaufkru7-2" target="WlaR65cunMCcRaufkru7-306" edge="1">
          <mxGeometry relative="1" as="geometry">
            <mxPoint x="-504" y="276" as="sourcePoint" />
            <mxPoint x="-344" y="276" as="targetPoint" />
          </mxGeometry>
        </mxCell>
        <mxCell id="WlaR65cunMCcRaufkru7-396" value="N" style="resizable=0;html=1;whiteSpace=wrap;align=right;verticalAlign=bottom;" parent="WlaR65cunMCcRaufkru7-395" connectable="0" vertex="1">
          <mxGeometry x="1" relative="1" as="geometry">
            <mxPoint x="12" as="offset" />
          </mxGeometry>
        </mxCell>
        <mxCell id="WlaR65cunMCcRaufkru7-398" value="" style="endArrow=none;html=1;rounded=0;dashed=0;dashPattern=1 2;exitX=1;exitY=0.5;exitDx=0;exitDy=0;entryX=1;entryY=0.5;entryDx=0;entryDy=0;edgeStyle=orthogonalEdgeStyle;" parent="1" source="WlaR65cunMCcRaufkru7-2" target="WlaR65cunMCcRaufkru7-286" edge="1">
          <mxGeometry relative="1" as="geometry">
            <mxPoint x="-438" y="228" as="sourcePoint" />
            <mxPoint x="-278" y="228" as="targetPoint" />
          </mxGeometry>
        </mxCell>
        <mxCell id="WlaR65cunMCcRaufkru7-399" value="N" style="resizable=0;html=1;whiteSpace=wrap;align=right;verticalAlign=bottom;" parent="WlaR65cunMCcRaufkru7-398" connectable="0" vertex="1">
          <mxGeometry x="1" relative="1" as="geometry">
            <mxPoint x="12" as="offset" />
          </mxGeometry>
        </mxCell>
        <mxCell id="WlaR65cunMCcRaufkru7-403" value="" style="endArrow=none;html=1;rounded=0;entryX=1;entryY=0.5;entryDx=0;entryDy=0;exitX=0;exitY=0.5;exitDx=0;exitDy=0;edgeStyle=orthogonalEdgeStyle;" parent="1" source="WlaR65cunMCcRaufkru7-2" target="WlaR65cunMCcRaufkru7-230" edge="1">
          <mxGeometry relative="1" as="geometry">
            <mxPoint x="-525" y="431" as="sourcePoint" />
            <mxPoint x="-365" y="431" as="targetPoint" />
          </mxGeometry>
        </mxCell>
        <mxCell id="WlaR65cunMCcRaufkru7-404" value="N" style="resizable=0;html=1;whiteSpace=wrap;align=right;verticalAlign=bottom;" parent="WlaR65cunMCcRaufkru7-403" connectable="0" vertex="1">
          <mxGeometry x="1" relative="1" as="geometry">
            <mxPoint x="13" as="offset" />
          </mxGeometry>
        </mxCell>
        <mxCell id="WlaR65cunMCcRaufkru7-406" value="" style="endArrow=none;html=1;rounded=0;exitX=1;exitY=0.5;exitDx=0;exitDy=0;entryX=0;entryY=0.5;entryDx=0;entryDy=0;edgeStyle=orthogonalEdgeStyle;" parent="1" source="WlaR65cunMCcRaufkru7-2" target="WlaR65cunMCcRaufkru7-289" edge="1">
          <mxGeometry relative="1" as="geometry">
            <mxPoint x="-262" y="392" as="sourcePoint" />
            <mxPoint x="-102" y="392" as="targetPoint" />
            <Array as="points">
              <mxPoint x="-313" y="342" />
            </Array>
          </mxGeometry>
        </mxCell>
        <mxCell id="WlaR65cunMCcRaufkru7-407" value="N" style="resizable=0;html=1;whiteSpace=wrap;align=right;verticalAlign=bottom;" parent="WlaR65cunMCcRaufkru7-406" connectable="0" vertex="1">
          <mxGeometry x="1" relative="1" as="geometry">
            <mxPoint x="-3" as="offset" />
          </mxGeometry>
        </mxCell>
        <mxCell id="WlaR65cunMCcRaufkru7-408" value="" style="endArrow=none;html=1;rounded=0;exitX=0;exitY=0.5;exitDx=0;exitDy=0;entryX=1;entryY=0.5;entryDx=0;entryDy=0;edgeStyle=orthogonalEdgeStyle;" parent="1" source="WlaR65cunMCcRaufkru7-21" target="WlaR65cunMCcRaufkru7-292" edge="1">
          <mxGeometry relative="1" as="geometry">
            <mxPoint x="-141" y="344" as="sourcePoint" />
            <mxPoint x="19" y="344" as="targetPoint" />
          </mxGeometry>
        </mxCell>
        <mxCell id="WlaR65cunMCcRaufkru7-409" value="N" style="resizable=0;html=1;whiteSpace=wrap;align=right;verticalAlign=bottom;" parent="WlaR65cunMCcRaufkru7-408" connectable="0" vertex="1">
          <mxGeometry x="1" relative="1" as="geometry">
            <mxPoint x="14" as="offset" />
          </mxGeometry>
        </mxCell>
        <mxCell id="WlaR65cunMCcRaufkru7-410" value="" style="endArrow=none;html=1;rounded=0;entryX=0;entryY=0.5;entryDx=0;entryDy=0;exitX=1;exitY=0.5;exitDx=0;exitDy=0;edgeStyle=orthogonalEdgeStyle;" parent="1" source="WlaR65cunMCcRaufkru7-21" target="WlaR65cunMCcRaufkru7-313" edge="1">
          <mxGeometry relative="1" as="geometry">
            <mxPoint x="226" y="431" as="sourcePoint" />
            <mxPoint x="386" y="431" as="targetPoint" />
          </mxGeometry>
        </mxCell>
        <mxCell id="WlaR65cunMCcRaufkru7-411" value="N" style="resizable=0;html=1;whiteSpace=wrap;align=right;verticalAlign=bottom;" parent="WlaR65cunMCcRaufkru7-410" connectable="0" vertex="1">
          <mxGeometry x="1" relative="1" as="geometry" />
        </mxCell>
        <mxCell id="WlaR65cunMCcRaufkru7-412" value="" style="endArrow=none;html=1;rounded=0;dashed=1;dashPattern=1 2;exitX=1;exitY=0.5;exitDx=0;exitDy=0;entryX=0;entryY=0.5;entryDx=0;entryDy=0;edgeStyle=orthogonalEdgeStyle;" parent="1" source="WlaR65cunMCcRaufkru7-2" target="WlaR65cunMCcRaufkru7-335" edge="1">
          <mxGeometry relative="1" as="geometry">
            <mxPoint x="-75" y="415" as="sourcePoint" />
            <mxPoint x="85" y="415" as="targetPoint" />
            <Array as="points">
              <mxPoint x="-367" y="317" />
              <mxPoint x="-367" y="492" />
              <mxPoint x="-583" y="492" />
              <mxPoint x="-583" y="613" />
            </Array>
          </mxGeometry>
        </mxCell>
        <mxCell id="WlaR65cunMCcRaufkru7-413" value="N" style="resizable=0;html=1;whiteSpace=wrap;align=right;verticalAlign=bottom;" parent="WlaR65cunMCcRaufkru7-412" connectable="0" vertex="1">
          <mxGeometry x="1" relative="1" as="geometry">
            <mxPoint x="192" y="-274" as="offset" />
          </mxGeometry>
        </mxCell>
        <mxCell id="WlaR65cunMCcRaufkru7-414" value="" style="endArrow=none;html=1;rounded=0;exitX=0;exitY=0.5;exitDx=0;exitDy=0;entryX=1;entryY=0.5;entryDx=0;entryDy=0;edgeStyle=orthogonalEdgeStyle;" parent="1" source="WlaR65cunMCcRaufkru7-164" target="WlaR65cunMCcRaufkru7-332" edge="1">
          <mxGeometry relative="1" as="geometry">
            <mxPoint x="-330" y="471" as="sourcePoint" />
            <mxPoint x="-170" y="471" as="targetPoint" />
            <Array as="points">
              <mxPoint x="34" y="591" />
              <mxPoint x="34" y="720" />
              <mxPoint x="-380" y="720" />
            </Array>
          </mxGeometry>
        </mxCell>
        <mxCell id="WlaR65cunMCcRaufkru7-415" value="N" style="resizable=0;html=1;whiteSpace=wrap;align=right;verticalAlign=bottom;" parent="WlaR65cunMCcRaufkru7-414" connectable="0" vertex="1">
          <mxGeometry x="1" relative="1" as="geometry">
            <mxPoint x="14" as="offset" />
          </mxGeometry>
        </mxCell>
        <mxCell id="WlaR65cunMCcRaufkru7-416" value="" style="endArrow=none;html=1;rounded=0;exitX=0;exitY=0.5;exitDx=0;exitDy=0;entryX=1;entryY=0.5;entryDx=0;entryDy=0;edgeStyle=orthogonalEdgeStyle;" parent="1" source="WlaR65cunMCcRaufkru7-21" target="WlaR65cunMCcRaufkru7-316" edge="1">
          <mxGeometry relative="1" as="geometry">
            <mxPoint x="-88" y="509" as="sourcePoint" />
            <mxPoint x="72" y="509" as="targetPoint" />
            <Array as="points">
              <mxPoint x="15" y="302" />
              <mxPoint x="15" y="600" />
            </Array>
          </mxGeometry>
        </mxCell>
        <mxCell id="WlaR65cunMCcRaufkru7-417" value="N" style="resizable=0;html=1;whiteSpace=wrap;align=right;verticalAlign=bottom;" parent="WlaR65cunMCcRaufkru7-416" connectable="0" vertex="1">
          <mxGeometry x="1" relative="1" as="geometry">
            <mxPoint x="15" y="-2" as="offset" />
          </mxGeometry>
        </mxCell>
        <mxCell id="WlaR65cunMCcRaufkru7-418" value="" style="endArrow=none;html=1;rounded=0;exitX=1;exitY=0.5;exitDx=0;exitDy=0;entryX=0;entryY=0.5;entryDx=0;entryDy=0;edgeStyle=orthogonalEdgeStyle;" parent="1" source="WlaR65cunMCcRaufkru7-129" target="WlaR65cunMCcRaufkru7-347" edge="1">
          <mxGeometry relative="1" as="geometry">
            <mxPoint x="90" y="542" as="sourcePoint" />
            <mxPoint x="250" y="542" as="targetPoint" />
            <Array as="points">
              <mxPoint x="41" y="570" />
              <mxPoint x="41" y="621" />
            </Array>
          </mxGeometry>
        </mxCell>
        <mxCell id="WlaR65cunMCcRaufkru7-419" value="N" style="resizable=0;html=1;whiteSpace=wrap;align=right;verticalAlign=bottom;" parent="WlaR65cunMCcRaufkru7-418" connectable="0" vertex="1">
          <mxGeometry x="1" relative="1" as="geometry">
            <mxPoint x="-106" y="-53" as="offset" />
          </mxGeometry>
        </mxCell>
        <mxCell id="WlaR65cunMCcRaufkru7-420" value="" style="endArrow=none;html=1;rounded=0;exitX=0;exitY=0.5;exitDx=0;exitDy=0;entryX=1;entryY=0.5;entryDx=0;entryDy=0;edgeStyle=orthogonalEdgeStyle;" parent="1" source="WlaR65cunMCcRaufkru7-183" target="WlaR65cunMCcRaufkru7-388" edge="1">
          <mxGeometry relative="1" as="geometry">
            <mxPoint x="193" y="594" as="sourcePoint" />
            <mxPoint x="353" y="594" as="targetPoint" />
          </mxGeometry>
        </mxCell>
        <mxCell id="WlaR65cunMCcRaufkru7-421" value="N" style="resizable=0;html=1;whiteSpace=wrap;align=right;verticalAlign=bottom;" parent="WlaR65cunMCcRaufkru7-420" connectable="0" vertex="1">
          <mxGeometry x="1" relative="1" as="geometry">
            <mxPoint x="112" y="-51" as="offset" />
          </mxGeometry>
        </mxCell>
        <mxCell id="WlaR65cunMCcRaufkru7-422" value="" style="endArrow=none;html=1;rounded=0;exitX=0;exitY=0.5;exitDx=0;exitDy=0;entryX=1;entryY=0.5;entryDx=0;entryDy=0;edgeStyle=orthogonalEdgeStyle;" parent="1" source="WlaR65cunMCcRaufkru7-361" target="WlaR65cunMCcRaufkru7-376" edge="1">
          <mxGeometry relative="1" as="geometry">
            <mxPoint x="552" y="622" as="sourcePoint" />
            <mxPoint x="712" y="622" as="targetPoint" />
          </mxGeometry>
        </mxCell>
        <mxCell id="WlaR65cunMCcRaufkru7-423" value="N" style="resizable=0;html=1;whiteSpace=wrap;align=right;verticalAlign=bottom;" parent="WlaR65cunMCcRaufkru7-422" connectable="0" vertex="1">
          <mxGeometry x="1" relative="1" as="geometry">
            <mxPoint x="96" y="-51" as="offset" />
          </mxGeometry>
        </mxCell>
        <mxCell id="ACXJi1MiJ7MaT-p83g4J-1" value="&lt;div&gt;Design and implement an application for a Health and Fitness Club Management System. This system will serve&lt;/div&gt;&lt;div&gt;as a comprehensive platform catering to the diverse needs of club members, trainers, and administrative staff.&lt;/div&gt;&lt;div&gt;&lt;br&gt;&lt;/div&gt;&lt;div&gt;Members should be able to&amp;nbsp;&lt;/div&gt;&lt;div&gt;- register and manage their profiles DONE&lt;/div&gt;&lt;div&gt;- establish personal fitness goals (you can&amp;nbsp;&lt;span style=&quot;background-color: initial;&quot;&gt;determine suitable fitness goals such as weight and time, and members will set the values) DONE&lt;/span&gt;&lt;/div&gt;&lt;div&gt;&lt;span style=&quot;background-color: initial;&quot;&gt;- input health&amp;nbsp;&lt;/span&gt;&lt;span style=&quot;background-color: initial;&quot;&gt;metrics DONE&lt;/span&gt;&lt;/div&gt;&lt;div&gt;&lt;span style=&quot;background-color: initial;&quot;&gt;&amp;nbsp;&amp;nbsp;&lt;/span&gt;&lt;/div&gt;&lt;div&gt;&lt;span style=&quot;background-color: initial;&quot;&gt;- They should have access to a personalized dashboard that tracks exercise routines, DONE&lt;/span&gt;&lt;/div&gt;&lt;div&gt;&lt;span style=&quot;background-color: initial;&quot;&gt;- fitness achievements DONE&lt;/span&gt;&lt;/div&gt;&lt;div&gt;&lt;span style=&quot;background-color: initial;&quot;&gt;- health statistics. DONE&lt;/span&gt;&lt;/div&gt;&lt;div&gt;&lt;span style=&quot;background-color: initial;&quot;&gt;&lt;br&gt;&lt;/span&gt;&lt;/div&gt;&lt;div&gt;&lt;span style=&quot;background-color: initial;&quot;&gt;- Members&amp;nbsp;&lt;/span&gt;&lt;span style=&quot;background-color: initial;&quot;&gt;can schedule, reschedule, or cancel personal training sessions with certified&amp;nbsp;&lt;/span&gt;&lt;span style=&quot;background-color: initial;&quot;&gt;trainers. DONE&lt;/span&gt;&lt;/div&gt;&lt;div&gt;&lt;span style=&quot;background-color: initial;&quot;&gt;&lt;br&gt;&lt;/span&gt;&lt;/div&gt;&lt;div&gt;&lt;span style=&quot;background-color: initial;&quot;&gt;Additionally, they should be able to register for group fitness classes. DON&lt;/span&gt;&lt;/div&gt;&lt;div&gt;&lt;br&gt;&lt;/div&gt;&lt;div&gt;Trainers should have the ability to manage their schedules and view member profiles. DONE&lt;/div&gt;&lt;div&gt;&lt;br&gt;&lt;/div&gt;&lt;div&gt;Administrative Staff should be equipped with features to&amp;nbsp;&lt;/div&gt;&lt;div&gt;manage room bookings, DONE&lt;/div&gt;&lt;div&gt;&lt;div&gt;&lt;span style=&quot;background-color: initial;&quot;&gt;update class schedules, DONE&lt;/span&gt;&lt;/div&gt;&lt;/div&gt;&lt;div&gt;monitor fitness equipment&amp;nbsp;&lt;span style=&quot;background-color: initial;&quot;&gt;maintenance, DONE&lt;/span&gt;&lt;/div&gt;&lt;div&gt;&lt;span style=&quot;background-color: initial;&quot;&gt;oversee billing DONE&lt;/span&gt;&lt;br&gt;&lt;/div&gt;&lt;div&gt;&lt;span style=&quot;background-color: initial;&quot;&gt;process payments for membership fees&amp;nbsp;&lt;/span&gt;&lt;span style=&quot;background-color: initial;&quot;&gt;personal&amp;nbsp;&lt;/span&gt;&lt;span style=&quot;background-color: initial;&quot;&gt;training sessions, and other services.&lt;/span&gt;&lt;/div&gt;" style="rounded=0;whiteSpace=wrap;html=1;align=left;" parent="1" vertex="1">
          <mxGeometry x="-229" y="-299" width="600" height="403" as="geometry" />
        </mxCell>
        <mxCell id="LId1oRx_qqmkx63bjs2s-1" value="admin can manage class schedule,&lt;div&gt;&amp;nbsp;equipment maintenance,&amp;nbsp;&lt;/div&gt;&lt;div&gt;and billing tables&lt;/div&gt;" style="ellipse;shape=cloud;whiteSpace=wrap;html=1;align=center;" parent="1" vertex="1">
          <mxGeometry x="-558" y="976" width="255" height="134" as="geometry" />
        </mxCell>
        <mxCell id="LId1oRx_qqmkx63bjs2s-2" value="billing" style="shape=table;startSize=30;container=1;collapsible=1;childLayout=tableLayout;fixedRows=1;rowLines=0;fontStyle=1;align=center;resizeLast=1;html=1;whiteSpace=wrap;" parent="1" vertex="1">
          <mxGeometry x="-1014" y="714" width="180" height="210" as="geometry" />
        </mxCell>
        <mxCell id="LId1oRx_qqmkx63bjs2s-3" value="" style="shape=tableRow;horizontal=0;startSize=0;swimlaneHead=0;swimlaneBody=0;fillColor=none;collapsible=0;dropTarget=0;points=[[0,0.5],[1,0.5]];portConstraint=eastwest;top=0;left=0;right=0;bottom=0;html=1;" parent="LId1oRx_qqmkx63bjs2s-2" vertex="1">
          <mxGeometry y="30" width="180" height="30" as="geometry" />
        </mxCell>
        <mxCell id="LId1oRx_qqmkx63bjs2s-4" value="PK" style="shape=partialRectangle;connectable=0;fillColor=none;top=0;left=0;bottom=0;right=0;fontStyle=1;overflow=hidden;html=1;whiteSpace=wrap;" parent="LId1oRx_qqmkx63bjs2s-3" vertex="1">
          <mxGeometry width="36.549957275390625" height="30" as="geometry">
            <mxRectangle width="36.549957275390625" height="30" as="alternateBounds" />
          </mxGeometry>
        </mxCell>
        <mxCell id="LId1oRx_qqmkx63bjs2s-5" value="billing_id" style="shape=partialRectangle;connectable=0;fillColor=none;top=0;left=0;bottom=0;right=0;align=left;spacingLeft=6;fontStyle=5;overflow=hidden;html=1;whiteSpace=wrap;" parent="LId1oRx_qqmkx63bjs2s-3" vertex="1">
          <mxGeometry x="36.549957275390625" width="143.45004272460938" height="30" as="geometry">
            <mxRectangle width="143.45004272460938" height="30" as="alternateBounds" />
          </mxGeometry>
        </mxCell>
        <mxCell id="LId1oRx_qqmkx63bjs2s-6" value="" style="shape=tableRow;horizontal=0;startSize=0;swimlaneHead=0;swimlaneBody=0;fillColor=none;collapsible=0;dropTarget=0;points=[[0,0.5],[1,0.5]];portConstraint=eastwest;top=0;left=0;right=0;bottom=0;html=1;" parent="LId1oRx_qqmkx63bjs2s-2" vertex="1">
          <mxGeometry y="60" width="180" height="30" as="geometry" />
        </mxCell>
        <mxCell id="LId1oRx_qqmkx63bjs2s-7" value="FK" style="shape=partialRectangle;connectable=0;fillColor=none;top=0;left=0;bottom=0;right=0;editable=1;overflow=hidden;html=1;whiteSpace=wrap;" parent="LId1oRx_qqmkx63bjs2s-6" vertex="1">
          <mxGeometry width="36.549957275390625" height="30" as="geometry">
            <mxRectangle width="36.549957275390625" height="30" as="alternateBounds" />
          </mxGeometry>
        </mxCell>
        <mxCell id="LId1oRx_qqmkx63bjs2s-8" value="member_id" style="shape=partialRectangle;connectable=0;fillColor=none;top=0;left=0;bottom=0;right=0;align=left;spacingLeft=6;overflow=hidden;html=1;whiteSpace=wrap;" parent="LId1oRx_qqmkx63bjs2s-6" vertex="1">
          <mxGeometry x="36.549957275390625" width="143.45004272460938" height="30" as="geometry">
            <mxRectangle width="143.45004272460938" height="30" as="alternateBounds" />
          </mxGeometry>
        </mxCell>
        <mxCell id="LId1oRx_qqmkx63bjs2s-9" value="" style="shape=tableRow;horizontal=0;startSize=0;swimlaneHead=0;swimlaneBody=0;fillColor=none;collapsible=0;dropTarget=0;points=[[0,0.5],[1,0.5]];portConstraint=eastwest;top=0;left=0;right=0;bottom=0;html=1;" parent="LId1oRx_qqmkx63bjs2s-2" vertex="1">
          <mxGeometry y="90" width="180" height="30" as="geometry" />
        </mxCell>
        <mxCell id="LId1oRx_qqmkx63bjs2s-10" value="" style="shape=partialRectangle;connectable=0;fillColor=none;top=0;left=0;bottom=0;right=0;editable=1;overflow=hidden;html=1;whiteSpace=wrap;" parent="LId1oRx_qqmkx63bjs2s-9" vertex="1">
          <mxGeometry width="36.549957275390625" height="30" as="geometry">
            <mxRectangle width="36.549957275390625" height="30" as="alternateBounds" />
          </mxGeometry>
        </mxCell>
        <mxCell id="LId1oRx_qqmkx63bjs2s-11" value="purpose" style="shape=partialRectangle;connectable=0;fillColor=none;top=0;left=0;bottom=0;right=0;align=left;spacingLeft=6;overflow=hidden;html=1;whiteSpace=wrap;" parent="LId1oRx_qqmkx63bjs2s-9" vertex="1">
          <mxGeometry x="36.549957275390625" width="143.45004272460938" height="30" as="geometry">
            <mxRectangle width="143.45004272460938" height="30" as="alternateBounds" />
          </mxGeometry>
        </mxCell>
        <mxCell id="LId1oRx_qqmkx63bjs2s-12" value="" style="shape=tableRow;horizontal=0;startSize=0;swimlaneHead=0;swimlaneBody=0;fillColor=none;collapsible=0;dropTarget=0;points=[[0,0.5],[1,0.5]];portConstraint=eastwest;top=0;left=0;right=0;bottom=0;html=1;" parent="LId1oRx_qqmkx63bjs2s-2" vertex="1">
          <mxGeometry y="120" width="180" height="30" as="geometry" />
        </mxCell>
        <mxCell id="LId1oRx_qqmkx63bjs2s-13" value="" style="shape=partialRectangle;connectable=0;fillColor=none;top=0;left=0;bottom=0;right=0;editable=1;overflow=hidden;html=1;whiteSpace=wrap;" parent="LId1oRx_qqmkx63bjs2s-12" vertex="1">
          <mxGeometry width="36.549957275390625" height="30" as="geometry">
            <mxRectangle width="36.549957275390625" height="30" as="alternateBounds" />
          </mxGeometry>
        </mxCell>
        <mxCell id="LId1oRx_qqmkx63bjs2s-14" value="amount" style="shape=partialRectangle;connectable=0;fillColor=none;top=0;left=0;bottom=0;right=0;align=left;spacingLeft=6;overflow=hidden;html=1;whiteSpace=wrap;" parent="LId1oRx_qqmkx63bjs2s-12" vertex="1">
          <mxGeometry x="36.549957275390625" width="143.45004272460938" height="30" as="geometry">
            <mxRectangle width="143.45004272460938" height="30" as="alternateBounds" />
          </mxGeometry>
        </mxCell>
        <mxCell id="LId1oRx_qqmkx63bjs2s-15" value="" style="shape=tableRow;horizontal=0;startSize=0;swimlaneHead=0;swimlaneBody=0;fillColor=none;collapsible=0;dropTarget=0;points=[[0,0.5],[1,0.5]];portConstraint=eastwest;top=0;left=0;right=0;bottom=0;html=1;" parent="LId1oRx_qqmkx63bjs2s-2" vertex="1">
          <mxGeometry y="150" width="180" height="30" as="geometry" />
        </mxCell>
        <mxCell id="LId1oRx_qqmkx63bjs2s-16" value="" style="shape=partialRectangle;connectable=0;fillColor=none;top=0;left=0;bottom=0;right=0;editable=1;overflow=hidden;html=1;whiteSpace=wrap;" parent="LId1oRx_qqmkx63bjs2s-15" vertex="1">
          <mxGeometry width="36.549957275390625" height="30" as="geometry">
            <mxRectangle width="36.549957275390625" height="30" as="alternateBounds" />
          </mxGeometry>
        </mxCell>
        <mxCell id="LId1oRx_qqmkx63bjs2s-17" value="date" style="shape=partialRectangle;connectable=0;fillColor=none;top=0;left=0;bottom=0;right=0;align=left;spacingLeft=6;overflow=hidden;html=1;whiteSpace=wrap;" parent="LId1oRx_qqmkx63bjs2s-15" vertex="1">
          <mxGeometry x="36.549957275390625" width="143.45004272460938" height="30" as="geometry">
            <mxRectangle width="143.45004272460938" height="30" as="alternateBounds" />
          </mxGeometry>
        </mxCell>
        <mxCell id="LId1oRx_qqmkx63bjs2s-18" value="" style="shape=tableRow;horizontal=0;startSize=0;swimlaneHead=0;swimlaneBody=0;fillColor=none;collapsible=0;dropTarget=0;points=[[0,0.5],[1,0.5]];portConstraint=eastwest;top=0;left=0;right=0;bottom=0;html=1;" parent="LId1oRx_qqmkx63bjs2s-2" vertex="1">
          <mxGeometry y="180" width="180" height="30" as="geometry" />
        </mxCell>
        <mxCell id="LId1oRx_qqmkx63bjs2s-19" value="" style="shape=partialRectangle;connectable=0;fillColor=none;top=0;left=0;bottom=0;right=0;editable=1;overflow=hidden;html=1;whiteSpace=wrap;" parent="LId1oRx_qqmkx63bjs2s-18" vertex="1">
          <mxGeometry width="36.549957275390625" height="30" as="geometry">
            <mxRectangle width="36.549957275390625" height="30" as="alternateBounds" />
          </mxGeometry>
        </mxCell>
        <mxCell id="LId1oRx_qqmkx63bjs2s-20" value="status" style="shape=partialRectangle;connectable=0;fillColor=none;top=0;left=0;bottom=0;right=0;align=left;spacingLeft=6;overflow=hidden;html=1;whiteSpace=wrap;" parent="LId1oRx_qqmkx63bjs2s-18" vertex="1">
          <mxGeometry x="36.549957275390625" width="143.45004272460938" height="30" as="geometry">
            <mxRectangle width="143.45004272460938" height="30" as="alternateBounds" />
          </mxGeometry>
        </mxCell>
        <mxCell id="LId1oRx_qqmkx63bjs2s-23" value="" style="endArrow=none;html=1;rounded=0;dashed=1;dashPattern=1 2;entryX=1;entryY=0.5;entryDx=0;entryDy=0;exitX=0;exitY=0.5;exitDx=0;exitDy=0;edgeStyle=orthogonalEdgeStyle;" parent="1" source="WlaR65cunMCcRaufkru7-2" target="LId1oRx_qqmkx63bjs2s-6" edge="1">
          <mxGeometry relative="1" as="geometry">
            <mxPoint x="-418" y="571" as="sourcePoint" />
            <mxPoint x="-258" y="571" as="targetPoint" />
            <Array as="points">
              <mxPoint x="-604" y="317" />
              <mxPoint x="-604" y="629" />
              <mxPoint x="-725" y="629" />
              <mxPoint x="-725" y="789" />
            </Array>
          </mxGeometry>
        </mxCell>
        <mxCell id="LId1oRx_qqmkx63bjs2s-24" value="N" style="resizable=0;html=1;whiteSpace=wrap;align=right;verticalAlign=bottom;" parent="LId1oRx_qqmkx63bjs2s-23" connectable="0" vertex="1">
          <mxGeometry x="1" relative="1" as="geometry">
            <mxPoint x="15" as="offset" />
          </mxGeometry>
        </mxCell>
        <mxCell id="LId1oRx_qqmkx63bjs2s-25" value="equipment" style="shape=table;startSize=30;container=1;collapsible=1;childLayout=tableLayout;fixedRows=1;rowLines=0;fontStyle=1;align=center;resizeLast=1;html=1;whiteSpace=wrap;" parent="1" vertex="1">
          <mxGeometry x="-1014" y="976" width="180" height="150" as="geometry" />
        </mxCell>
        <mxCell id="LId1oRx_qqmkx63bjs2s-26" value="" style="shape=tableRow;horizontal=0;startSize=0;swimlaneHead=0;swimlaneBody=0;fillColor=none;collapsible=0;dropTarget=0;points=[[0,0.5],[1,0.5]];portConstraint=eastwest;top=0;left=0;right=0;bottom=0;html=1;" parent="LId1oRx_qqmkx63bjs2s-25" vertex="1">
          <mxGeometry y="30" width="180" height="30" as="geometry" />
        </mxCell>
        <mxCell id="LId1oRx_qqmkx63bjs2s-27" value="PK" style="shape=partialRectangle;connectable=0;fillColor=none;top=0;left=0;bottom=0;right=0;fontStyle=1;overflow=hidden;html=1;whiteSpace=wrap;" parent="LId1oRx_qqmkx63bjs2s-26" vertex="1">
          <mxGeometry width="36.549957275390625" height="30" as="geometry">
            <mxRectangle width="36.549957275390625" height="30" as="alternateBounds" />
          </mxGeometry>
        </mxCell>
        <mxCell id="LId1oRx_qqmkx63bjs2s-28" value="equipment_id" style="shape=partialRectangle;connectable=0;fillColor=none;top=0;left=0;bottom=0;right=0;align=left;spacingLeft=6;fontStyle=5;overflow=hidden;html=1;whiteSpace=wrap;" parent="LId1oRx_qqmkx63bjs2s-26" vertex="1">
          <mxGeometry x="36.549957275390625" width="143.45004272460938" height="30" as="geometry">
            <mxRectangle width="143.45004272460938" height="30" as="alternateBounds" />
          </mxGeometry>
        </mxCell>
        <mxCell id="LId1oRx_qqmkx63bjs2s-32" value="" style="shape=tableRow;horizontal=0;startSize=0;swimlaneHead=0;swimlaneBody=0;fillColor=none;collapsible=0;dropTarget=0;points=[[0,0.5],[1,0.5]];portConstraint=eastwest;top=0;left=0;right=0;bottom=0;html=1;" parent="LId1oRx_qqmkx63bjs2s-25" vertex="1">
          <mxGeometry y="60" width="180" height="30" as="geometry" />
        </mxCell>
        <mxCell id="LId1oRx_qqmkx63bjs2s-33" value="" style="shape=partialRectangle;connectable=0;fillColor=none;top=0;left=0;bottom=0;right=0;editable=1;overflow=hidden;html=1;whiteSpace=wrap;" parent="LId1oRx_qqmkx63bjs2s-32" vertex="1">
          <mxGeometry width="36.549957275390625" height="30" as="geometry">
            <mxRectangle width="36.549957275390625" height="30" as="alternateBounds" />
          </mxGeometry>
        </mxCell>
        <mxCell id="LId1oRx_qqmkx63bjs2s-34" value="name" style="shape=partialRectangle;connectable=0;fillColor=none;top=0;left=0;bottom=0;right=0;align=left;spacingLeft=6;overflow=hidden;html=1;whiteSpace=wrap;" parent="LId1oRx_qqmkx63bjs2s-32" vertex="1">
          <mxGeometry x="36.549957275390625" width="143.45004272460938" height="30" as="geometry">
            <mxRectangle width="143.45004272460938" height="30" as="alternateBounds" />
          </mxGeometry>
        </mxCell>
        <mxCell id="LId1oRx_qqmkx63bjs2s-35" value="" style="shape=tableRow;horizontal=0;startSize=0;swimlaneHead=0;swimlaneBody=0;fillColor=none;collapsible=0;dropTarget=0;points=[[0,0.5],[1,0.5]];portConstraint=eastwest;top=0;left=0;right=0;bottom=0;html=1;" parent="LId1oRx_qqmkx63bjs2s-25" vertex="1">
          <mxGeometry y="90" width="180" height="30" as="geometry" />
        </mxCell>
        <mxCell id="LId1oRx_qqmkx63bjs2s-36" value="" style="shape=partialRectangle;connectable=0;fillColor=none;top=0;left=0;bottom=0;right=0;editable=1;overflow=hidden;html=1;whiteSpace=wrap;" parent="LId1oRx_qqmkx63bjs2s-35" vertex="1">
          <mxGeometry width="36.549957275390625" height="30" as="geometry">
            <mxRectangle width="36.549957275390625" height="30" as="alternateBounds" />
          </mxGeometry>
        </mxCell>
        <mxCell id="LId1oRx_qqmkx63bjs2s-37" value="last_maintained" style="shape=partialRectangle;connectable=0;fillColor=none;top=0;left=0;bottom=0;right=0;align=left;spacingLeft=6;overflow=hidden;html=1;whiteSpace=wrap;" parent="LId1oRx_qqmkx63bjs2s-35" vertex="1">
          <mxGeometry x="36.549957275390625" width="143.45004272460938" height="30" as="geometry">
            <mxRectangle width="143.45004272460938" height="30" as="alternateBounds" />
          </mxGeometry>
        </mxCell>
        <mxCell id="LId1oRx_qqmkx63bjs2s-38" value="" style="shape=tableRow;horizontal=0;startSize=0;swimlaneHead=0;swimlaneBody=0;fillColor=none;collapsible=0;dropTarget=0;points=[[0,0.5],[1,0.5]];portConstraint=eastwest;top=0;left=0;right=0;bottom=0;html=1;" parent="LId1oRx_qqmkx63bjs2s-25" vertex="1">
          <mxGeometry y="120" width="180" height="30" as="geometry" />
        </mxCell>
        <mxCell id="LId1oRx_qqmkx63bjs2s-39" value="" style="shape=partialRectangle;connectable=0;fillColor=none;top=0;left=0;bottom=0;right=0;editable=1;overflow=hidden;html=1;whiteSpace=wrap;" parent="LId1oRx_qqmkx63bjs2s-38" vertex="1">
          <mxGeometry width="36.549957275390625" height="30" as="geometry">
            <mxRectangle width="36.549957275390625" height="30" as="alternateBounds" />
          </mxGeometry>
        </mxCell>
        <mxCell id="LId1oRx_qqmkx63bjs2s-40" value="status" style="shape=partialRectangle;connectable=0;fillColor=none;top=0;left=0;bottom=0;right=0;align=left;spacingLeft=6;overflow=hidden;html=1;whiteSpace=wrap;" parent="LId1oRx_qqmkx63bjs2s-38" vertex="1">
          <mxGeometry x="36.549957275390625" width="143.45004272460938" height="30" as="geometry">
            <mxRectangle width="143.45004272460938" height="30" as="alternateBounds" />
          </mxGeometry>
        </mxCell>
      </root>
    </mxGraphModel>
  </diagram>
</mxfile>
